<mxfile host="app.diagrams.net" modified="2023-01-09T04:07:28.855Z" agent="5.0 (Windows NT 10.0; Win64; x64) AppleWebKit/537.36 (KHTML, like Gecko) Chrome/108.0.0.0 Safari/537.36" etag="rEss0M8Dvzy4OnsLI2fv" version="20.4.0" type="github">
  <diagram id="RgogAoriKZZwI_5VyV08" name="Page-1">
    <mxGraphModel dx="1673" dy="1593" grid="1" gridSize="10" guides="1" tooltips="1" connect="1" arrows="1" fold="1" page="1" pageScale="1" pageWidth="850" pageHeight="1100" math="0" shadow="0">
      <root>
        <mxCell id="0" />
        <mxCell id="1" parent="0" />
        <mxCell id="yWaTH6eBsS6ZjSi_a27b-1" value="" style="shape=image;verticalLabelPosition=bottom;labelBackgroundColor=default;verticalAlign=top;aspect=fixed;imageAspect=0;image=data:image/png,iVBORw0KGgoAAAANSUhEUgAAAc4AAADYCAYAAABiHgOCAAAAAXNSR0IArs4c6QAAAARnQU1BAACxjwv8YQUAAAAJcEhZcwAAFiUAABYlAUlSJPAAAKd6SURBVHhe7f0HeGTXdSUKLwCVUEAh59DonHPOzFkkRSqaSlayR1aw5/v8zzcz1nj8rHnzZmzPeMZWsCVLlhUoiqIoihTZTB1INjvniG6gE3KOlQPw77ULlwRbCIVuAI3uPos8XYWqW/eee+69e521zz77JAUCgX4YGBgYGBgYJITkgVcDAwMDAwODBGCI08DAwMDAYAwwxGlgYGBgYDAGGOI0MDAwMDAYAwxxGhgYGBgYjAGGOA0MDAwMDMYAQ5wGBgYGBgZjgCFOAwMDAwODMcAQp4GBgYGBwRhgiNPAwMDAwGAMMMRpYGBgYGAwBhjiNDAwMDAwGAMMcRoYGBgYGIwBhjgNDAwMDAzGAEOcBgYGBgYGY4AhTgMDAwMDgzHALGSdAPr7+xGLxbT09fW998rP+Tr4s6SkJCQnJ7/3ymKz2fRvlpSUFP3b2sbAwMDA4OaCIc5RQHKMRCLw+/3wer3w+Xz6XtoNwWBQCz9j4WckxdTUVDgcDi18X1BQALvdrqSZnp6OjIwMeDweJU8DAwMDg5sLhjgHwVKWJMH29nY0NDSgs7MTvb29+trd1SWvLB0IhkKIRqPv/YbkymIpTEtRkizT0tKQ5nZrycrORm5eHnJzc5U8i4qKUFhYiMzMTCVaQ6YGBgYGUxu3PXHSvRoSEmShkuzs6FDCvHzlCqqrq9HS0oIuIcuenm70dHUraXbKaygcRp+0nM2WIuQYd8lasFy40Sjdu33yHeARpZmdkQlPViayhTyzc3KQk52DiukVmDVrFsrKypAnhMrv3EKwJFGSroGBgYHB1MJtT5x0tdbW1uLy5cs4d+4cDu0/gPNVVWhqadbvbVSQSXH1SIVJVamqNBiFLxCRz8OyVZ9uezX6++1CmjY4nYDLYYfLLopSyJCEmJQs++P4qJAsSbK0tBQrV67Ehg0bsHjxYlWidOkaGBgYGEwt3HbESfKjK1ZVpZAlS62oy8amJjQ3N6OtWRRmVxf8wQBsKXGXq6Ul09NSkZWZIUoxE6lpaXC7UoXcXEKMDthtNtleCDEJiIkUDQghRyJUsxH09nbp+KffH0SvN4Aer1+KT4g3KOTaB7scJ92TjvyCApSUlKCiogJz5szB/AULsHDhQnXj0v1rYGBgYHDjcdsQJ1UiXbEcu6TCPH78OI4dO4azZ8+is7UNPvku2heD2+lSAiQDRqN96oZ1OoTY0twoLy3EjIpSlJUVoyg/D/m52cjNzUSaO1W2ccBhj0fP0j3bq8FCISXp5pYWdHR2ob2jF83tHfJ3F1raOtDR04OgkGlYyDUoJRyh+7cPHiHl6TNnYOny5bj//vsxd+5cDTByinQ1Y6AGBgYGNxa3DXGSwE6fPo09e/ZoOXHiBHqEuPpFHTpFzTHq1Zo20t/XJyQWRWdPENlZHsydVY67N63E0sXzMGtGuXyWAYeozOSkZN2WoOs1PrmE/3KMU4qQoLzV7/g33bxd3T3o7OpFuxBpY3MbDhw+hf2Hz6CmvgUpSX2iYuN1CUUjSJHXpUuX4oEHHsC9996L8vJyuFwuPYqBgYGBwY3BLU2cJKqOjg6cFJI8cuQIKisrceHiRQ34IUnm5ORoQA5drs1NTaiprUNvbwDpbicK8rKEqMowf/Z0LJw3A3NmliM/LxseT5qqy2Qhw3gQUL++DgcSMbflK7dlUFE4FBaFGUYgGEJdYwsuXWnA5ZomNDU1o0nqVlPXhI6ubkSEPBl9Wz5tGhYtXoyHHnpIXbcc/zQwMDAwuDG45YiTJEbC5BQSjlmeP38eO958E++8/Y6QUSfsQnoky/nz52OaEBKJKSxkdvTIURw7dlxIrQ8zyguwfMksbFi9HIsXzkZFeSls9hSNlI1Fhw4Eeg+qMuPJEUZq2GQhUpu6dpPl+BE0t7ah6mItTp29gEPHz6KhvknUaTe8viB6/X4dA33yyY+o8ly1epUZ9zQwMDC4QbjliJOkyTmX+/btw44dO/S1s71dA3DKZ0zH8uXLsWzZMlVtVIFUpHv37sUpUaXtra1YsWQ+tm5YiTUrFyI7IwPOVKcG/qgLl1Q4WmtFg+iXEo3FhDwHPhsGskv+KyW+Yazfht5gDLX1zTh64jQOHT6J42eq0ev16/FT3W5s3LwJDz78MO68804lTwMDAwODycUtQZxUdwz+qaur03HM3bt3a9BPY2OjTv0oLyvDnFmzMWPWDJSUlMIjhNgtau58ZSXOnjmDrs525GSlYXZFKZYtWYCZFSUoyMvVOZokrA+AijIWFvXJFHtDNF1fVAvVaaINyyNo0E+yDTEkaxBTS0s7Ltc24NDJC0KeF3Dhci2C/gDyCgswf+FCPPLII1i9ejVmzpwZ34mBgYGBwaTgpidOKkwSDUnz8OHDSpq7du3Sz5mRZ/WqVRpgM2fuXGRleOAPBNHU3IJTp07j1PGjaKqvwewZ07B5wwpsWrcC08pLYbenfNAlS7erEGVcccrn0YBwYxSxgcCgiUCKEGkoHMW5y81458AJ7D5wHDU1DTr26XA5sX7DBjz22GPqujVuWwMDA4PJw01PnHS1nhGV+bOf/BSHjxxBS1sriouLsUoIc+3aNVgwbx4cTid6vT4hnhpUVp4V0jyLkyfPo6I4C1vXL8bjj9yL0uIiuAbcsoO8pwqSZjTYK6+iJvXzkQOCxhVymMbWTpw8exE/f2Enqi/VajRwWOpE0vzYxz6GO+64A1lZWQM/MDAwMDCYSKR885vf/KuB9zcVmCKPRPiWqMuXXnwRe/bu1XHFWbNn4Z577sG6tWsxa+ZMMPiG0apV1dXqvj1+/ARqr1zCvBnFuHvLatyzdR1mieJMS3OryrPAxAR9YSrLEPqjYfTHIvrZAHNOCsjfnEea6nRI/VJFVSbDHwqjrasHsUhUsx5193QraTJ5PIuBgYGBwcTipiROumbr6+vx9ttv45WXX8Hud95Bv7DMwkULRX1txcaNm1R19sWiqKmr1ykozDtbdf482ttbkZXuxIcf3IK7tqzDwgVzdd5kHEKKHJtkVKwQZSzsF+IU0qTSnETCHAwqW461pokazsnyIByNobPH914QVEtrq47j0l3LJAnWXFQDAwMDg4nBTemqZU7ZnTt34oc//CEuXbqkCdSfePJJbN60CfPnzkW/KEeOeZIsSbB0bXa0t+PsqdNYtmgOHr5vMzavXylKLUOnhbyH/hgQ8SPG8UuNip24McyxwiLDK/XN2H/0LH767OtobGlXOu8XVfqRj3wEn/70pzF79mxdyszAwMDAYGJwUylO5pmlytq1Ywd+9+JLuCRKsqy8DFu2bsU9d92F6TOmI0lI86J8TkJlVG0wEESrkCbJc15FIe7YuBLr1yxDXm62jmdaY5VUlrEIXbOReCDQZI1hJgjSJiNvmSw+LdWFiBB7Z7cP9U0dwvcxaZuInGtA2qNclzF7X0UbGBgYGIwnbprEpyQyUcea0GD//v04euQIsjIzsX7dOjz4wAOYN28uUoQI6xsadHWT2ppa9HT3IBQMIRIKIdWeLKS5AutWLUFpcaGOZ3LKiOxYiCeKvkgQsbAUISGuWDLV0C+Ksy8pGW5R19OnleKerWuweMFsXePT5XDgyqXL2CkdipMnT6KtrW3KEb+BgYHBrYKbhjhJaFSbTGpw7MQJRNGPZaviy3AtXDBflGYKrlyp0eTtba1tiEVjwjYQtdmKNEcSls+fjrWrl6OsrGRgj3HQHRsNeWX70MAnUxMMcrI505Hi9MCdmatRw/fcsQ6b1y5AqsuBSDiMjvYO7Ni+XYOgDHEaGBgYTAxuGuKkq5VjlswExGhSZv/ZuHEjikpKdOWRo0eP4tChQ0oaXDKssakRDY0NqBMyLcjLxNaNq9U9O3i+o7pnQz5VnFSeoyHZ5hDyStN9MP/sZEGP60qH3UkXbb8uTdbV3Yu8nCysXLYIJdIZSPN4RJH7cfDgIZ3PSnc1I48NDAwMDMYXNw1xMjH72TNn1VVLNTV9+nRkZ2erCj0ohLlzxy4cPHAQVXTT1tagtq4WjY316ItFMK2kCEsXizJ7L2hGSJKZf0RlxiLxNTGHA5Vscoo9XuwuJEmJ9iWBgrZPXicDSXJsOTi8Xj+u1Dbg8IkzeHf/MVypa0aSkLg7PQ2uVJcuZ1Yn531CVDeVN13bBgYGBgbji5smqnb7m9vx3HPP4c0330RObg7mzZunq5s0NjTqdBNGzzINHtfS5Jgf53S609y4c8MqPPnovbh761pEIwNBPwPRs9GIKE7ZbiSkONxIcbr1PRcO43JjLa1t9J0i1SGkZe/DRIvPFFG5oWgSTpypwu69h3HgyAm0tHUpaTJpva7lyYWzgyENoMpnxqR1a/Hnf/7nuhSZgYGBgcH4YUoTJ4N3uMrJqVOn8Pqrr2nwS3NLM5wOp6oskgTFIyNIc/JykZGRgQxPBjzy3YULF1BbU4OZMyvw1JMP4PEH7xDSY8RsPH1eX7BHSDM65Fgg3bApKTYlzVC0H129PlRfrMXpyks4f6EWPn+v8GY/sjLSsXLxXCyZV4GK0vyBX48fOAOFkbTBSDIu1rfhRz9/HsdOVaOxqQMBIUpGENsddqQ6bdJhSNapNVwfNCoKepoo8m9961tYsmSJSYxgYGBgMI6YstNRSJqMDuWY5SuvvIL9+/ah9soVpJAchOyYAICUV1hQiIULFmDN2rWak3bRokWYK2qUa142NXFdyx7Mm12B5Uvmoi82QJpMbsDEBsO4aONuWQdiyQ7UNrTiyIlKvLXnMH73xrt4dfs+Ic8LqKy6hAuX6+ALhpGXnYHppQVIofQk240TOHeTCrrb60f1pXq8+da78PtDyM3O1vHNzMx0pLuccNqohfsRY9J5+U1Pr1cVN9uDSRHMKioGBgYG44cpqTgtYty+fTt+85vfaLIDuiLdTpeqxty8PEyfNRNrhSznzJmjS4RRdVKd8bfMLGQtK3bs6FF85Q8/jv/f1z+v3zEbUCzkH5Y0Cbpm+5IcaGnrxAvbduE323bqGGtnlx/hMIQo3XDYU5ScvH4vPvOR+/FHn3oMOZkezfIzXiBx2mV/V+pbUSXEyTU7C/NzUVFSoN93CUGS2A+fOIdTooY55kn4Q0F4hCyfeuopPPzww1i5cqV+bmBgYGBw/ZiSxOnz+XR5sBdeeAGvvvqqrqcZ5FxMlwsLFizEkqVLsHjxYlRMm6auykAwpMne+TvO2wyFQxpVShfvsWPH8KVPP4E//8pn4bInidpkogNhvyHAKR/JjlQEwzFNLLBtxx7sevcITldeRKbHjvLiAlSUFiM/LxMOmw2x/hj8gQDWLV+AjauXINVpV/fpeIKdAa/Pj64en6rwdHeqFJd+x/R7Xn8ATS3tqKyuVTfu3sOndQWVtHQPNmzehCeeeEKTwTscDiViAwMDA4Prw5QjTpIDM/78/Oc/xxuvv67klypK0ymkWVBYgPvuuw9Lly1DWWkpoiL/2jradZmw5qZmnbJC4oz1xdDR2aFp9/j7P/zkY/izLz+FDBddmn3DLgeWlGyD3Z2B6ssN2L3/GJ5+/jW0tnXBk+rCkvnlWLl4NhbMqRASTdPk69wbuSgry6PjnRMJkh6PyTFaq/5M4pAsnxFNrR04dfYSfvXyLpyrqkGvP4hCaSOqzk984hM6zsmctgYGBgYG14cpNx2FLlqOTVJtnj93TtRVGnwBPxYuXoTPfe5zeOShh1AkBHqlpgbbd+zCW2+9o+q0XVRpJBwZIJgUJIt6HAz2DhhBm8gamkeOVeKZX7+O81W1mF6Sj8999G782Zc+go8/eidWL52LmRXFojwLUVFWiBkVJcjO9Az8cuKgbmZRmIPrz/cMkGLhOOvaFfPxhU8+hPWrFukYLzsNTD0onSPtkBgYGBgYXD+mHHG2trbqXE3Oz6R6dNjtWLxoCdasXq0ZgsJCErU1dag+X42uri4ly75oXzxaVsiFoBIcDKoyjhVe9fEHwEhaJndn9Oypc+fR0NyIhXNKceeGpdi8ZjGKC3LgcjllXylKzCmyP+53Mt2fQ7kGeMrx007S5cdmVZRi0fwZmDOrTKfJsI04PssOiYGBgYHB9WNKESeJr6W5BReqLwgZxpSg0j0erFq9CvPnzdcEBswKdOnyZVWlVFokLo4DDgXur78/GbbkFDhscdfqcOB3DDy6cKkWjc2tcNqTsHntQmxcPV9UZTEcDrvu72rlxr8twr6R0DpIW9BlPGdGKRYLebqcdu2A0GVtiNPAwMBgfDDliJNTUOpr64S47MjOykJxURFWrFiONE+6EOYVnDp1Gs3N8ejRkUC3bFSUKGCHXYjVmRITXhme4Oj2DATDaGxtgyPFJsQzG/dtWSUkdPMkEGAnglG9ZcX5WDR3OlJFIdOFfVk6GmGGAxsYGBgYXDemDHFSuXEaSXtHO1paW5T40tLTkVdYgKKiQoRDIVWaPq8PfbHRx+vCzAoUDQvxlaA4P1P0ZCKqsB82Ide5M+miXaZRtG4hn5sF7Hgw7V6OqM6K0iI4RSUzgQQ7I5oswsDAwMDgujGliJPJ2+labGtvU+Jzp6UhLz8fDrtDCaCpMe6eTQSRUBj9fVHMnVGEovzsgU9HBsdBC3MzsIQrqSxbgKyMePTsWDCUO3ciwbFdTseJRuJuax7blepEXk4GPB6PdDJiOs5piNPAwMBgfDBliJOEQ+POuZidYuh9QqJ0z+bm5qKto0PItF0IIvHoUBKJyC+UFuUhOyuxqSJUl8sXzsaKRbMxvaxQA4ESicIdjGg09l5qv8lARNqssbkdvb6AummtYCV2NspKSpDqSoXX69W21XFQAwMDA4PrwpQb4wyLevKLoSdBctK+0+l8L7lBStL7xDAcuI9INIKIKFam5ysvFuLMzBj4dmQwspbJBdwuh0bNjgWsFtUps/fsO3wWnT1edTdPJFjfvv4+NLV2oqahBU0tHULYfTq/0263oawgB26nDd3d3ao6OS3FwMDAwOD6MGWIk4qIbtrunm4EA8E4AXA+ppAA3bT8bLjo2cGwiLNPXplVqCAvG+lpqfr3qBD2I2GOJfuPRvWynjanHM+Flo5enDp3Ge0d3aI8E3SPss7hCHp6/ejo6k2IcOPHtckbG/zBCOqb2nGxpvG9Y9LtnJ+bBacjBT7piDA5hAkQMjAwMLh+TBni5PjmmTNnUFNTg3As+h7RkQiplBKdTtEv/5GEU0Rx0dXrdrs1UTpdqOPtqiR50T1qc6TCnpoJe1oW+pNJZCG0dvTA6wsObDkyorE+Uag+VF6oxZGTVfAHRl6A2jpuis2FZKcHbk8m2rt8OC2ETZdtX1+/knl6hkfO3YaQP4CQtK8Z5zQwMDC4fkwJ4qyursbLL7+MZ599VpMfpLlS4bLbkZKUrC5bKqVE3Z4kRxKEy2FDbmY6MtJdsNsnKNWc1C9JyCspxUk204hWTqEpzM/H+Qt1aGxpU/etfDUypM7sKFyua8bBE1VKoiOe78BxkeKAw+nA9Gml6Oz14e39R9HQ3CadkJCu1OJxO3Sstas3gGAo8TY0MDAwMBgeN5Q4Q6GQTs5/99138dKLL2L//v1oa2mFy+mEw2aXLeIkSIOfcKSqiEpuz9VLstJTkZbq0oTsEwMObDqkFVOUsEmcublZKCstQW1jK2rrW+H3B8mLqhKHQ5KQnEMUMhenPll5UVdlCYXjUbJD4/3j2qWdigvz4XQ40NrejUu1jaI+e0Fvs9spbdjfh24hYs59pct7vFW3gYGBwe2GG0acNOAMWuFam7/61a+wc9cuOIQI0tPSBraIj3tea55VZgviPEanKLKxBvpcDwpyczC9ohTBSEQDdqqv1GuOWQbyDAeO5WZnpAtZBnDpSg0uC/n1iIIcHCU7HLhfnuOCOdOxauk8XSXlSn2z/s4l559io6tbCPnkCe2kGOI0MDAwuD7cMOI8d+4cXnrpJV027NKVK7A5nGLkbZrlxyVGn3RhGXmbfE5yGQsYHMPcsowwnUy4ROEW5Gdj4dwKtIpy/O1re4QImxAKhkd021J1FuXnoLQoX1TnJVyU31DBDk100pGIBoGIX0tSNICi3HRMKylC9eVGXbuzq9unwVEOhwtebwhvv/0O3njjDRw6dEgjlA0MDAwMrg0p3/zmN/9q4P2kgOOVzDP71ltv6bjm8ZMnEQ4Eked2Y7oY+gwhOnJFoC+GnPx85OTkqPLs7emJT0vxetXwM8tQRPbFeYwkF0bcUmVRnQZDQST3x5DlcWHpwpm6huVEgMdLSbErydMlysJ8CSxJsSjOXazF8dMXkJmZppG9melu/kh/ezWS5fPObq+WqksNWufy0nykOhywlg4jGCTl84fQ0dmD9vYOIed2NLe0oVZU5qW6Jhw8dh7uVAcKhYRZvzNVdThx5hK8vV06RYftk52drUFTLld8XU8DAwMDg8Qx6cTJ+YRUmVw27J3du5FssyPH6cQcIc2PprmRY0tCR18/OsToO9LSYBelyd9cvngRVZWVqKutQX1dLZqFfL3eXk2KwCQF7lS3qlKLOGPhkJBOMpYvmgOPkNZEgBSYghiS+iMiAsNa+qMhJPVFkZORhtbObly40oDzQqB2Uc0loibpPr56Wg0Jjm5ZdgB8gRDeeOc4QtIpyPK4hTwL4HTGE8wTHV1eXKhpwL7jVTh4/Bz2HzmNt/adxM69R7H/8FnUNLSrQne77CjIzZJj1wt51uqyY1x55qy0IffFxBLl5TdPHl4DAwODqYJJJc7a2lrs27dPSfPc+SpERT3li+pZ73bhASmLuZqHkOYFUZHtsX5EYn3widJsbWkRZdWKHiFKS6+RIKk4OY0lyOkqovD4Jd2TRDDoFxILY8GcafCkpyqZjCcYgNQuqm/nu0c1oOeKqD0mIujs6tHC8c3TlZdRfakere2dKC7Kw7wZZao8h3M789yYmP5SbQOa2rrRLKWiLB8Z6WlITXUq4Xb1eGWfdXjpjd04cqIKVZebcLmuRToXvbLfJEwvK8KWdUuwdvk8Pc6JM5dxtqpGjuuSv5N1vLW5pRl2u13Jk2n5+N7AwMDAIDFMCnGSZJj27eDBg6o29wt59srfOaIoFwlZ3knyTHXAIcRQGYniZCiCHiFQBgaROMOiKtOEOIoK81BeUqSvuaKgOI5J4uySbZj0gMRiZ7YhhxNe+SwU8GH+7ArkZGVoOr3xDIuJSD3rmlrxzIs7cPRUNS7WtqCmvlkIsw2X5T2TIJytrkFjS4eQYQzzZ5Vj8fyZqn6HIk6qQLsQW5wce+NK9UItSgpzVS3mSKE7lyu4tHV04+jJSnllUoN+XfKsIDcTc2aWYv2KBbp+6LzZ5eju9eL4mYu4KIq3XDoPDBaKyHGamhrjkcfSVkVFRfG5ruPcsTAwMDC4VTEpxElyu3jxoirN30qBKEkuG1YoxvqjQiSrhNQyhEwuRsLYLcRwKBRGsugvrogSFtVYkJ+DzWuX49EH7sLmDSuxbvUSLF00B0V5Wejo7lGF1idEFuuL6XzIrKwsdHV2w9vbg6XzZ6CwIAcZnrT33J3jASZWv1TTiKd/+waOnb6MqotNojxrcPhENfYfqcSRUxeE/JoRkE7A9PJCbFi1EMsXzVZXLV2zQ4Hk5XTYVDXX1DegsuqidAhiyMvJFCVZoMSZ6nRqp6E0P1cDicpKcrFh5XzcsXEp7t60AlvXLcWM8iLYhITpKj517iKaa+pwZ2a6Bkq1SYeEU304PeXCpYuYMWOGKs+MjMTSEhoYGBjc7phw4qRqvHL5Mp55+mkc3H8AnV2d6BfDvTTVhYeENNcKaRYIYfQKqf3OH8BRIc1WIcGwkG1FaSHu3LAcjz90D7ZsXI2FC2ahrLgIxaI4iwryUVpWjMwMjyg4IZq6ViUzuy1ZF7/mGCFXR+HKKIVCsPlCPsyoM14giVE5cp5oXk42Mj1uZGW4hdQ8yM3x6Ookc2eUYN3yeXjwztWaOJ510PHNYYiTUHJ0ObQTEA5HcbmuXcc9uSxaUUEuXPIdx32zMj0oKcrFjOklWDh7GmZM4yowuaJoXbDZbbr0Wkt7F46eu4Ka2iZsyUjDdOms5Ej7tPcBob4+aZ8+UeVBaa90FJeUqMv26vFXAwMDA4MPYkKJk+OQDQ0NOHTwEJ7/1XOor69XtZMniuoOdyoekFIixprJ2OuELJ/3BXApHIGYdHjcTlFpi/DI/VtFTa1FQR6jayOi4EKiHPt0kebi4kIhKuZjdYjauwCv16cZczKyhCRlG27ntKfoCinlJfnjSpwcL6T7uLS4QIg8R8g5U0g9TwisELMqirUsXzwT61bMx9rl81Esqlnnk45AmgTVqFv2S2XK2ULHzlxGc2unpuHjvj3pjIZ1Il1e6YIuzMtGXm6mjoMyiIgjpdwHp7KQOI+cvYLaSw3YIsQ+W/ZZJHVoku/8Uo2AvLa3tsLpciFfOiKMtqX71sDAwMBgeEwYcdItymkke/fuxSsvv4yLFy7AF4kgXQzzA0KKd4hSm+d0wiZGvj0Ww/lIGDuFHDpEcXrEwK9ZtgAP3bsVWzev02kT585X4+139+PAwROoqalFwO8XVZeDPCFUj5DC5ctX0N3Tg6DsIzs3R+vA4KNIKIjppQWYO7NsXImTSBH1liVqbZrsf+GcaZgnym/J/BlYumCmlmULZ2FmRYm6VwdPKUkEadJGJMjqKw2oqW9DQ1MHcrM8Qpbp6rrluViuZ75nJ8U6PyZFsIjz6IlqXBHVuVzaaLrDhiJRq8znS9VZI9cnIu3IqT0BaaelS5dqsJCBgYGBwfCYMOLkXMtjx45pMNCut99GbzCEYlGXa0RNUWnOFgJ1D7gFW8WAn5NyKBSBV15zMz348CN3Y/nS+ToW+u7+I9i5+yD2HjyJqgs1qKy6hDNVF3UdymTEkO1xIhwOKrkwyjQ5qR/eXq8GCDHCdd6sMh1fHG/iJKju6F6li9Mhao6qz+V0aGHdmWydRDVWcLyT++B8To5zNrd1oK6xSb7pFwLNQKYnTbcZatyWxMmApCZpn6OnLqLuYj02ZqehVDokGULgGVJfLjDWKWTL1+6B1VMKCwt1rDMzM1P3Y2BgYGDw+5iQAS0qzfb2duzYsQMHDhxEY5MYfDHws4QINon6WuhwIkcIxUJQvusVIx4VUmCEaF5OFhYvnIeiggIEQyE0Njaira1dc64yHd25i5zUfwHbtr+LPfuPormpFTPLOcaXE58mItv2dnVpcJGw5cBRJgZUepxHSgIjSZLMrEK3LL+/FjCQJysjHZvWLMQdGxYL+ZfiwpU6vCudh31HzqCptUOTSZC0hwLrExL1jr4YUkUZu2R/NtmUpcRuw2Jp52VyPbKF3IM+P65cuoy3pYNz9uxZVaDXWm8DAwODWx0TQpxUm5cuXYrP16yqQlZWNvLEQC8RY70+1Y40UUSDwQXDgnQ3ymu2qKlpQoKFBbkaXcotF86uwD2bVuKezSvgcDGpeS4WzJ6Ozs5ujV49KIWBLfm5GcjJdKM/FtX0fXl5uVghqrWspJCHualAMiaoLjeuXIBH712rqfyY0ODF1/fIeVehrbNHx02HitLl73v8QST19yFbVLBblKZNQ4zkO/l3uj0FW1xOTJd2KnS7dSWa3W/v1vFoRtwmuoybgYGBwe2GcXfVUqmcOnUKO7Zvx4ljxxAQA5wtKvMuBvuIoZ7lcMAuRpoGPEpVJIa9SRTq5UgUx/whuEVlLZw5DetXL0N6ehqoS9Ncybryx+U6Kldg89pluH/rarjdLrR2dKKuoQmbVi9SpcogHLplGZCzdsV8Dc6ZXVGi2w7l1pzyEFLkyikMhqLLtrM7oNNcahvadR5rcUEO3C6m5YtnHiLoqg2GojhdXYeLF+oQauvE6vRU5JI8ZX/ciq9O4dt+eeUUlRpR6jFR6JzGQjKeOXOmzu80MDAwMPggxlVx0kXb2dmpY5tMpxcSQ0/SnCbqZqO8zhZV6BDS1G3FyAeFNP19MZ2UT5sfEuPNscJUp0NVFCNknUIK2ZkZ6oLliiHz51Rg4+rF2Lp+qSjQVaIwPahrbNHpGxzLfPiedXj0/o148K41uGvDMqxeMgcFeVk3reuR9eZYZ1lxPu6V812zbB7S3Kk6X/S1t47irf0n0dzehUj4gwqR7dHV45PPo3A7UjRxfgqJUr5T4pSSKSS5SEh5lijSTLrO5TfVF6rxzjvvaJYnkwzewMDA4PcxrsTJRAdc9YTrah44dAg94TDKBsY1l8gr52taoNL09UURETMe10kjo9frlxLU6FiqLM5nXDxvOhbNnYWSwiL4/BElmFnTS7RwCkp2hijWQWOpNyvodmXQ0Zql8/DofevwyD2rkeFx4+19p/CPP3oJR09Wo6PbO7B1HMxsxNy0kaAf6dIu6cKaDiFPC1zSmn+VSqdmuXRo1sg2brlODS0t2vE5cuSIJuM3MDAwMPggxo04qYy4vuaePXtQe+UK0hyiFIUoFzjsWC1Gn6ue0FCTJqkyOQE/NsCYDFhxi2HPEAPO5bcaW0VBiVodDCpRp6ijNJcLDocNyaJcqUznzirFhpULkJftgc2WjP4+OYIVPTuIKKYakqT+NmcabKkZ+sq/R4J6YeV8ppUWYv2K+Zg/qxietBQEgl5EY1GdtzoYbD/mu/X5g3CJcidpDnUEtv00abdlHAeV7VKSUxAKBDSncFVVlXoRbkoXt4GBgcEEYdyIs7e3F1eEMLneY0NzC9JS3ZghRDdfiJMrn9BVSETFBgeENMNi6GmOWfidh4tY28Ro+wNobuuEl8uGMUBFVCm3SnO7kCPkSNctI0lJwByLmzWtGOtWzNU0dFy8murMinKdqtApLKKEk+0upEhJtjvlw9EvBTsnWeluVJQVoqggS9ojXZRnKtypLl19xQJPPSxtxyksIVHq7LQMR5xEXkoy5si1qpB95EjnJczx5qPHcObMGVWtJE8DAwMDgzjGjTiZFYjuPbpqm7q6kOR0YnmqEwvEIGelUCEmadQsxzbpnh2sJ6l0csW48zUsaqejvR1trZ0I9HaLdAoIE/QhLzcDMyqKNaMO52NyniLJsbQ4D8sWzkYm3bJCpDcDGLxjE+KUJrkuZGdmYXp5OYoLcpEuHQsLJNhgMKSroMDrRb607XAp3CnOnVKREiHPzS47Zric8Mnvz1VX6fU8efKkpk00MDAwMIjjuqNqSV4M3Nm7Zw+2vfwKGhvqVfHlC8F9VNTRvEGJDnRcsz+m5DlYDzLlHsn0bDiK9lAIfUIoFWUFyMlM0/yv3F80EoNdSDgjza1p55jPlaB6Y7kp3InsNIia6xYVyOJypyNJ2iMWCkjfYHhVRzc1z5EBQI3SoTh17hJee/uAku+SBTOxdtk8aSe6e+NM3CP7rr7UoMFD+dE+LJM2LLOnvBdRezX0V/JPsvzHZd3apFPCa+pypWo6vtmzZyMt7dYYLzaY2rDmgHPudl1dnU6NupbCYSPeszqfeoqBzxY9dAyk5OL8rCvnZNOGsb7Wc2wwdZEkauK6GIfuVN4A//qjH+En//YTdREyO81iUS7/PitDE4vzNiBZ+vpiSpzWEKQFmuMOIcdf9gawr9eLbiHIezetxKP3bsLGNYvRF4vA7w/CHwjq9nRNMp/rzYZ4ZLAfV+qb0eML6ZSbVFF5sfDvKzrtEMgrV3thEojuHj8aW9pReaEGx05VY+/hk1gwdwYeumsd7li/XImToLKva2rDnkOn8TfffR5LY2F8rCgHcxwpqiyHI05+HpBjvRsIY4cviPOiMu0eDxYuXIA/+7M/k9eFZgUVgwkHlx/kdLZKLlovxHmtyM/Px5NPPqmvUwUkRmbooneO50fSZEAlkZ6ernWdNWsWiouLTfauKY7rJk7e6MePH8cPf/hDPPf880jLzsEWTxoeEXK7052KLFEpNP49oqhC8sqpJ1eDetQranS/GO03AyEcj/WjKMODT3/kIXzy8Xtg6w+puzZu3gkx9Tdhp4wrttTWtwrpnUaDkOCXn/oQ8nOzlFCvBpPIM3sQg3yqLtZpwoODx87J6zk0tbRhxeK5eODOdbh74wqdbkM1TrLl3M5z1TV4c/cxfO+n23BHcj8+W5KjczjZQRnpYidLm1aGokKeIbweDKHVH0BZYQH+/M//HBs3bkR5efnAlgYGEwOOqT/77LN46aWXNDr/WjFv3jy1SezwTRUFxyGUw4cPY9u2bfjFL36hytgCF1coLS3FE088gYceegirVq0a+MZgKuK6iJMGv6WlBb/5zW+w7ZVXcOzQYeSJSnlI1M9jbhdmyM3gTErWQKCeWFReh556wtuartraSB9eF1W5wx9CKBrBlvUr8Nh9m7B6ySxdLms48MEgyVjSaaoGB5E4a+pa8PLOAzhTXYs/fuohLJhdoVNLCM65DITC6O71oaOrBzVKspWobWiE1+cVlc1lyzIxrSwfKxbOxvTyYhTmZ+si3dII+mDSrXvwWCVek2Ns33EIW4UNP5Lr0Tmb7KCM1Cpsvh7Zx5lwDN+XOjTKtchKS8N6Ic2PfPQjuP/+++MbTjBoNFkmA2vXrsWWLVtQUVGhiwkY3FjQnvzyl79Um8IFIq4VCxYswE9+8hMlTj4TNxpUmoxUf+ONN7Br1y5cuHDhA7EDrCNdy9OnT8cDDzyARx55BIsXL1YlajD1cF3EyQtfXV2Nf/re97Qn1dXSilmiNB8TxfmwEF06o1xl70x04O2LyfuhDzXAd+oqfEtU5+teP871eqUHVogNK+bj8Qc2Y+a0YqSnpQ5E1Mr2g/bFdSW5YHQ4TPoFsoSIBmfSmSrQMcq2Tvx6227sPnAK925eiUXzpqO8MFe/9wWD6OzyoqG5TVRlBy7XNuPA8WppnyiKCzKxeP5srFgyB8sWzEJFaYEGQ0UjJNuIkiY7EJyys2PPMbz8xh40VF7BVlsyHpD2YOCV1c6joVFU7j/1+FEtJE5Hkjs9DV/84he1sGc80Ybov//3/66F5zTR1/DjH/84vvSlL2H58uVmZZgpALovdWEIIRd6sizQ1jAph+XaHA1TiTg5fnn58mX8y7/8C7Zv367R6iOBavPhhx/Gpz/9aVWhJrZg6uG6goM4qF11/jxefvFF1DY1w2GzYZGT8zadmOtwiqFOUrXJeZsc4xwNTjHunK4SllIrN3uHP4ie7l5dlisrKw0FednqiiQGG9SgGPiqy3U4f6FOV0xhpC2jb6cacZL0HXY7rtQ0aoDPKanvpZoGXJa/j5+5gP1HK7H74Em88dYhHDlxDs2tHSgrycU9G5fjIw9swb13rNblyrg4N12zdIH7gyE997aOboSEQPn50dNVOHrkLLJiMb0es+jGHajDaHivE9MHdMn+60IhNDU2YM6cOVixYoWqsol+kKk02DunR2Oir+GiRYuwcuVKFBUVwSn3mcGNB/NOl5SUYMmSJeoR4H1HAuG4IIeGEgHHC+n25OuNdtUyBoTjtj/+8Y91bvRQQzOD0dXVpWXDhg3Izc01a+ROQVwXcVJt0sjtP3AAHT4f0oWs7hfFudjp0NVPqDCpNlkSNX8OuceZy7YuxgjcfvQKGVypb0MP08dFI3LTiUXXnfXD6w/h3IVa7Nx7DL9+ZRcuXKmXh86BJYsXwu1ORUy2vxHgg8qIV7pPBxt+fk5ii8qDw/U5qZC1LyybcCtOKWEi95nlxVgjSvvOjStwz5bVmmaP63oy4TsT3zPysKm1S8c833j7MI6eqtKFrOfMKIPXF8A7B8/gyKFKzHPG59EW27m0WWKwTExU3jWL4uMC4wwAKysrVWNWUFAw4QRz+vRpNTA8ToaowJysbGRlZmph/lwGS1GNJgK9FtKho5qkEcrJzNJpPB5Pui77tnzZMqyUHj6XVDMG6saD6jA1NRV5eXlKlnShl5WV6bXh6j0koUQwlYiT47Ykfa4WxYjh0cB7m/cr4wp4X5qc0VMP10Wchw4exBtvvIlLV66ou7RUDN2HxPgzkpbLWHFMM4i+IQOChgMjP5kQobevHyH5uzscRV1zhxKCz+dHd68f7V09mhXnwpUGHDxeiT2HTuHEmWo1sosXzsXCBfNFcdoQi3APkwcqyi6pH0mN9Q1FwugToueYK0OJ+b1NFDNVJ6fUpEkHIz8nEwW5WToXs6K8EHOnl2H+nGnqjl26cBbmzijV5A4MFvIFQhpZe/5SPY6JqmTkLJUq97lwToWQa7GozwbsPnQW1VU12JDhxmw5Rrb8dkzEKfW0y5smqXstiVOIPjNLCCcnR6P+OBYzkcaIngyq2hkzZmD+3LmYP38+5s6bK2WeGhK67ALBxOaWkjQZDUzXHdXLooULMW/+PMwVBT29YjpWrl6t7rwsOb+pOHXhdgOJk14NEgevCQuvH120v/vd79DW1jaw5ciYasR5/vx57N69W+/t0cDONs+ZY+/sPJghhKmH6xrj/N53voPvfOe78IsCyhfjvFKM9B9nejCNc5Hke0bScq3NRNy0Fvg7zmhsi/ZhTyiMd4QsuHJKRI5hEwKi4nKKqrVJDzQq3/d4vaKIwigtysfHHrsfT0rJyc5Eciwk309eknI+nHQj7zt2HvuPVSFVpHNZYa66jal+qSY5hcYl9eZzTDcre5YMauJ4LM9bH3D9P0nJNhaNCflG4Jc26Or2oqa+GUeFKDkd5XJNg7pmS4ry8KWnHtGVYJyy7+defgsv7j6Kuupa/Gl+Fpa77BpRe/UUoNHAzXfIcV/h9BnpsORPK8e6DRt0nJMBDBMZSEOFO9SyZmwfGqDPf/7zum5oIqB6Idl/8pOfxEc+8hFkZ9PNHXfjU7lTyVDZ3uhxMIPhEQqFcOLECXz5y1/WBCuJYCqNcdJ7QrX5v/7X/9JOXyJgp/Fb3/qWqk5OTzGYWrimO4qD3Q0NDWhobERHdxfCYuQLxPjPs9uQLjcpExrQ8FJpDhcQNBI4gpaTkoRlQpL3CuEsdYpCk333yDF8wgBUXr4ery7UzJ4oF7/+0P13YuO6lcjLzVblMPajjg3JNmc8zyyLI1WX46Jhn1acj0WzSzXA5/nX3sbf/tMz+O5PXsS//PJV/OzXb+KXL+3Cb157F6/sOIDte07irf2nsfvASbwj5e39J0RFnsGZ85dR19gmRNmC57ft1t/+09Ov4J+ffhVvvH1EFH49mtvaMXN6EZ54aIsqU096KjqFXKuvNKFTyM4lbZYv7ZXOazHGxiCJ2+V3WUnJyJe2ZCelqbVNXaiMekw0QONawetHwru6kKxJemNVEDScJEcqZbq9uC++MmKR+zSkObUx1WIVxgpLQY8lNoDbUnXyXjWYergmi0E1wEm8be3t+j5JbmzmO50hBo9uVqopBgVxCHyst7y1PQOFptmSscphwyaXE6tEZc4XxVYqJJkpx6D6pPmkMuOqKKtXLsacWRX6ni7RiQT3n2KzI8XulBvcpsqlV93IXiEwJ+bOLEW5KGCeDJMdHBKFuP3do3jpzb148fW9+N2b+/Dyzv1Kni/vkPdSXpW/X96+D9vks4Mnzuvv6lvasXPPcbz+1mHs2ntcSPWsRtry9GZOL9Hl1e7YsAzlomqjotCZ+OBCQyvCvgCKpKORPbAiyrWYHbZgjlzTctkP8+D2eHv1mrPHnIi76XpAYhyuXA9ojAbvy/rbwGAiwQ4aVSNVJD0eo4FxBFTMHJaYSM+OwbXjmomTilPHoqS37hbjQ1dtsRAdg3uYWm+k6SeJgK5Fqp4SewoecjvxeVFUX0x34x4h0blCnlx5xeq/cYwvX5QmMwoxpd1E9lBpaHk85pvVpAxRv4bQX7jcoMXnC6JMiOxTT9yDL3/qQ3jigTtQkJ2FtrYOHDpxVhXmDiHDHe8ewqu73sWLb7yD37z6tpDpXvx627t47pU92Hf4LGrqmnVqyunzdUJWzQh4feiLMdl9KubOmoYvPfUoHn9wC2ZPLxU15UBrWxfOXqjBBSHb1FAIi6XdPFLHa41/ZThXgVzTuaLw7LIftiiVJt1OHLMxMDBIDBynJRHed999mphhNHA6CqdJMeGIIc6piTETJ0Op/X6/roTS290DF91qQp75oryKaWSFWMaTtkig3F+mqKfZQgYbUx3YrO5bh+ZeZWwlE763d3Zp8NBEQ8fGYn1govn4B4DPH8C5i/X43s+2CTGe0u8YNTujvAT3bV2JL//BQ/j6Hz6BPxIiffju1Vi1ZLZ8V4qi/HzkSA/U42G0LNfDdMDjdqjcIzlnSEehtCgX08oKsWBuBZ54aD2++IkH8NmPPoA1y+ZrYBHHSXn+NQ0tOFl5Gf2xKMqlY0HCo9pMLPb0g+CZ8fR4c7ilLgVyfXPsouTlb153Q5wGBomDnW2m0CNxMmDp7rvv/r30lRyeYNT3PffcgwcffBDr1q3ToQWDqYkxR9WSOGk433j9dVRfqEZESKNQjP466RmtYAYbsfqMpmW5FqM9FGjIGT6TKsqHEaIk55B8WCnqsktUkNPuxJrli1FYmIsMT3pccVINyi/79XVocN1OJhDw+oNycwMOu022H/hyBHD/SSl2UZ02UYFheL1+XQpt35FKnT/KtUFTRf0y21GekBvJr7ykQNfSLCnIEUWar0E9ZUUFuuB2cWEeCvOyUSL1Z3L72dNLpJTpfM1wJCaf5WPJ/Bm67uia5fM0gjYn06NjuyROJozffeA03tp3ArFQBEsdNqwSEs6W9roetzWbgu3cGO1Dj7RjIClZxwPZa7ZSmU22q5P3HrPKJEreHBOlQVq2bJnOCzSBQDcfOBTCsXVmk0pkOgcxlaJqCRJjTk6Oum2tbEC8Lzl/mJGzXEiBSThIrgwI4t9jGRM1mFyMOaqW7jrOSfrLv/gLVFZfAB0Jq8VIP57mxp1pqRoQRDctE7qPN3j700PaLorvdDiKX/T6UdnhRZo7Dd/40kdw713rMX/uDE1dR3Kj+ooEeoQgh155hG5driTCaNUiTgcpLdDcsIm4elOcaTrGGfHL/mMRdHR7sf3dIzh/oVYr+tTj92C6KEW6UblPPrwpdHnKrmkIuOZlMBzRhaaZwN4bCOjUFU47SXenamQwidcfCOvUmlTplHAfXLDaUrvcNixEebrqMn70yzfxu1f3YE5+hqY8vFuUuUcIQoT6daFL6sRsTu8GQ6iU9+lSjy9+4Qsa2coAm8l+uJl15TOf+cyo2VcsMLiCyRv4m6eeekp7+mbayc0F2hwub3ezRtUOBju6VhYkaxUXggRPAuWr6dxNfYz56vAm5nqZzW1t6PL7EBMyKLWnIEuMOMfFOL4ZHUHlXQ9IF+SMNCGQQjHYuckpyHba4LIDdQ0NOo6o63TqloJRSIORsCEhL0azHj1ZhfbOXp0Ckgj6oiFEgz4hQtle6pMhnYbNqxdjxrRiqUc3nnlxhwb/cF5lry9OinwYSHZUihyPzfSkoTA3S9RoPuZML8XcmeU6ZklFyrSB3C4t1alKmNDOwMCpEST+lo5u7D18FhcbW+AQslzscmAmxzeFMdnJuB7w5w65QxhkRLUfkYfe7/WhVXr/TU1NOtZtcHuC9yJJwGBsoA3guCVJklmrVq9erYVenJuJNHntExEYtyrG7KrlBOSzojhff/11dPl8yE514w4G7IhxzxQi8wuRUHVOZJNa60peFpLrEpIOChkxmnZaaTGml5fqjafuGaozJkEYhsi5HdXe3sOnEAiGlahysz2a3WdUyD77B6lq5o3NykjXOZeNQuBnRQU2tXajq8evnQ2vPwCvT16FRJnInfNS6fbW5AhyNnYu9k1Fyr+k/ahISepUqUlJ8QQGg29UbtvR5RXVX4tX3zqA2oYWZMk53+cRhSUKlUu7XS9InDwipwBdFOK/KPWJBvyYOWMmmESA2V0mO9vOVHXVshPBsX9mtuEzQjXBOtLF2NIsRV5b21rV1chgMqaO4/xE3qesz1Q2lrxPffKs89x4XjwXdpys9zxPa11JbksvxHvP4DjgZnTVkljYFtYzy1ersD58bugNsVy3JFPLE8LfWZ2SG1F3C6wD71Fed15v67pb19667iy0cTw3Pm8TeS/zGKwTk+bzuHzWrHuQ79ta33/2eK/wM77yHPjM8RnldErrmbvW9h2zq5Zz+Uia3/nOd9AhFZmTk4M/FcJYLUonT4x/R19ElMn4jW8OBd5ezCzEJcjeklIp7ws8Hnzy8Xvx8cfvR6bUh8E1dNGqK3UYVy3VH9fHfP3tgzhz/oo24hc+8RCKCnIGthg7unt8OFtdg5889xoOn7iAbm8QyxdWCKkX6H4LcjORl8O0bx5di5MXTyOTRYFqwna5qARJk+OTHBdlkNBgMmc9mWyBS429uusAnt/2NpIDESzL8OBzGW4Uy3fj8bhxH1GhzvpoH34jpP9Sjxfh3h488fjj+NznPndDEqNPVVctSYMGhVHHnLbDh5VkGgqG3lPmNCpO6WRaZM5UclQdNO5TORCErkUmKWeKTb4yj6pF/AQ7IzT+jB6la5TnxPPjeY4HbkZXLduGhW0wVuNsEadFpjeKPHnf8j6mzefzNtR153ANz5FTbdjmc+fO1c8mCmwXPmcMUqypqVGCJImyrvyOcSt85ihkmCyHYP3YlpwKxHuUzxvryffXGrU8ZuLcs2cPfvvb3+L5559HWB6oRXLwr2SkYQkjQkVxdsSEONmzGth+IsDHICJHuBTuwyuBIN4UcgoJcTzx8B349McexIJ5s4SUHIixMcN0v0bf68ENBm9IrljCiFTmfD1eeRF3bFiJtcvmYc704mtanowu2a5eH46ePI9tu45o3tio1IPEx3FKKmMGEDlEFdqkvZKSolJiSvQcu9RcvAJe0OllxTqtpbw4/72bgEaAder1+vHMb9/CL17ahXa5cZbK93cLwa4XMubY5ni0Px9X1oar1vzCG8Az3V5EvL2475578IlPfAJ33HGH3nyTialAnLyX2GvlQss05EePHNUxq7Z25lTuea9Xy+14P1j3nvZypbPGVyoOkiWjLZkDmMEg69evx8yZM5V0xgIe89ChQzh48KDGH1wL2Caca8gMS8wMRdXY2NiIAwcOaKGRsnrtNFIsNPAEt6VxYuH5cD8kLKY4pNIf6+T/qzFRxMn69/b26vqYFAPXCl6/P/mTP1H3q7VPpgfkKi+0MWMlPj7ffK4YYcvOKa/HUGC7sCPDlWSuZ+1Szhfl80Hy4zXkdebzdfToUc3YxPuAHcOhrjvvG7Yv72V6oJhbmBHBvPa8D0iu1wMej/XhdWddWC+qSHpAWNgG9EgoaQ7YatYvOUnU5MBYFetn3aN87mhbeU9aHT5mFmO9Wfie33HbkTBm4nzttdfw7C9/iXd374ZTTmqZHOTLQpyzxHAzOTuJcywp9q4FbA4egQZ9uz+E3/X4cbajF+vXLMHHP3QnHrpvK7Iy05UwEZWGjYSGT/gu++C46M49x7D93WPwh/pw18YleGDrCrilgdn4YyFPXiTm7e0S5fnuoTPYufc4zp6vRUdXLwJykemCjQlB9g9oQqFupAhxUv2SXJnHlqn5SgrzsWTBbHzysbtQWpirPaj49tDMSScrL+Hp3+zAK9sPIDsrTQOCHnY7UWRLFkU+vlOCaHZ+IYrz5zwHuVnXrl2DRz70IXz4wx/W3ttk4kYTp+WO5XqKNOZHjhwRwjqkxsUrnQoLNJZMHMGHlFONCCo3/v5qMNqShMncpFyphcaec/gSDb6iKnjhhRfw3HPPqRG9FtCALF60GN/61l+jQgw1z5GdZKaKo1Hm3zRiiYD1Zkdg06ZN2Lp1q67ywXMczRgNh4kiTp4PjfD//t//G9/+9rcHPh07eIyf/vSn+jpe+yQZ/9Ef/ZEuar106dKBTz8IEvSxY8d0ubJnn3124NOxg8/H3//93+v6n+FQWDpK+7GHi3fIdWdHjASVCHh9qepInCT9O++8UzsTvLeuBVS47LDxHFlI5Fxlhp23oeByuuR5c8Im9eBzw+tOEmUnlteFz9/VAsq6V9lp4Pk/9thj2lG5errQ1RizD8Ma60gRkswSw1AohjozxaakOdGEacE6SpqQGsdWV6c64E5zokZk++Fjp7QHrspN6gS7W7pGw4/DJUnjut0uXedy45pFOHi0Em/tPYGqy/XxnstAryVRaM9HXjOFyO7ZvAzf+Pzj+OzH7sJDd63A6mWzsHBOCebMKMLMikItXNFk/uzpWLZwHjasWoYH71gvKvMBfOOLH8WffPYxlBXlvUeaBIm3uaVDFPJBXKqpR3aaHYXSBtNkm3J7ik7bGc+rwLPn9B+PFK54kyY3pU9uXBIFXTZjVeQ3O0hSVHbf/e538Q//8A+66HJ1ddUHSJOg+93jTkOZGA4acRb2yIcCnycSMPf3d3/3d3j66ac1wUiiREWSZgfhesabPaIYCqUT5JL90Fi98sormlv15ZdfVndYonUh2Dkg0XEZrb/5m79R4ztUh8FgeGjHS5614Uh/IsD78NjxY/jn734Pv/j5z/WeTJQ0Cd4jvFd4z/yf//N/dDUbulWvFRwa+PWvf42//uu/xve//331fAxHmkRWViZmz5wlHcD4UoEMuqLHg8TIDv5QHTfrXuX4efxZrk7onBMODqKBJJFwcdnDwvydvT3Ilos7Sx7WZSJ5XWJhg5MQGHQ1mKmIwULnRTX65cLxNpsrRJTp4YB73E3QJyqYU0aGA2tMQ6fzOJP60d3dg6qLdcjPy0S69Ejcsp9rOSfm7HU67SjIzRaCLNW1NJdp4conM7Fy8WysXz4fG1cvEtJchLXL52GFfDZv9jSd38mIWtZLniJ9kLhUGXPYHjheiVd2HEJzaxecjGgW0lzodGAO6z9w7PECiZPnwUCsi6LgvfJJilxvJm5Ys2aNuuYm8+Hmg3kjgoOoevhQcZjiZz/7mSaZZ3ACe7NXg73uRQsX4ZN/8Af40KOPae+bc/OoHNibtVxMg3/L54uFn5OcaXBYd/bY2Xseyd3H/bAu7DBSTfMY/B3dfVQldGWNBta5sLhYyZ1Kk65GjtWOhTCvhrqqBwrvE6ponsdI5zIUJio4iO3N86ObneqGrjqePzshVCeWS5Jg+0ybNk0Lx6apCK3C8TLOv+Q21j7pxud15rWgmuF2dB+qAor8/j1zNah4+HzRdcgUfEOB+yKRsE343jpWcVERonJP0JPGJQxHA4/FbEVUdL8S5XpG7m0unjH4/MeCwW3ANmH7WAowEZDM6FHi9X7xxRe1k857nPu9GmxXEiQXcPjQIx/Cffffh7vuvhubN29WTwcL25Hb0O1NzwfvJx5j8HPBffMeveuuu/Q+HS12Y0zEyYeaxHlEGrjb50eh3JBM7L5IjLZN7s0Ao1gHtp8sMDcu5ypeEoXZFgzDJw8pXZv5OVma8F2hUbU0TEPXjteDFzZViCpLlGJbZw/OXaiDPxjRFUfycuJjNGN94Lk9jR+jbQvyslBSmKdJDrhiSllJvs7znFVRjJnTivV9aXG+Jj1gcgPO/9TjSeEr3b89HDs9cR67RBGfqqyRBzCiAUYktsIUZm9K1mXZKJLHVtPhwf1w/wwQqpEHsUPaKiYfeqRDwZuTN+KtTpw0TgxGeOONN5RQSCwkpKtJhful64fH4QP8oUc/9N5UAxo0PpA05DQCHDMiGVwNqnj2/BkZyLqzfflAU02ORAAkJ44z0ZAwOIeuX/6OY2A0EkMZncFgu/Ae57lyvJQdA4590XDTBcl9WudBY8i6hIMhnVc8HHhMGl+eq7Uvuq55nLFgIonTqiPJg8TJjgczonV2xV3TbHd2Qmh86Uqn8WVbWF4EFrr4eM157a19svDaWduScL1enzzDPXrvjIZEiJPH4HVnHbmNdaxSIfbW5hb0euPDQ6OB58x7h54UXnueB+vL5fx4bnxlPXhv8T7h9WDh8YcD246Ex3rxt7wXeT+PBv6O9z6vNYcFyTeDCc4C68znmm7hhx9+WDsuK1et1LrS9cxOBM+B15Sv/JuFHSPeg3wmyGcsFnhfM6vTuBInby4ejPL96LFj6JEeWZlY6IUOO+ZIobHmHM6RH8/xR3y0Kgldff2oD0dRK8bdKfRdXiwXbMa0+Lc61cOGPo5zjvCgc3yRgTgpdgdaOrz41UvvyHlHMWd6CbKF/OgyHelmGQ7xJcTiDxONBoODOI7JwvdqSOThjj8I729rgeOfkVAEZyovYdv2A5powe6Q/Yia5S3VKQ8P+4akA+YLTpV90VaMx7WgySFxtgpxNso90NQn94EYzHS5+e6Vm5U34q1OnHRdvvXWW/jHf/xHHWMZDjRgzARDg/3Zz35WH1oaJF5fFr6nIeeDTFcsx22GAp81qkdLRbLeNDzD1ZvnyOvAnj2JmoUGlMZ33759up/R1AOfbRo6nh9fqVbvv/9+zZn6h3/4h/jUpz6lvXqqZxIJcyfXi1Jj543393Cg0ePxed6W4eI1GAsmijjZnqwLrwcJkeTeLOd+WtqAxMnjWu3A68l2oIKhsR5ceG/x2l69T+taUM3xXqitq9W2HarDdDUSIU7eU9yOnaTBx6IiPn32DJqEgNhpGQ289iQodg5JmjxHjvXxnD//+c/jox/9qKYBXLFihRIW68/9DkVoV4Ptwn2SzKw2GgnsuDGK92//9m/VhTocOG5KdyyDFHmP8p60An6ufk5YZ9aBHRl2/jiWHxaRxbHohsaGga3GRpwJWxAacjaURqiywa56WMTUa3KC8TDWiYJkTRpkkFCzEGaMN60YiMPHq3HkZDXqGpr0wVYM/ex8ADxHRtLOrijCQ3esxP1bl8sD1IOfPf8mTlRe1KkrdJcO9yCON3gcHq+jsxeHT1fjN6/vwcmqK3pjWHXgv8xJWy/n/7bcDO8EwrgS4fyxePuMV025L3oVhJLhCwbQIQ9OfA7qrQuSDV14+/btF6X5shBA5wc6NFeDPVkSFsdU+JDygR0MXjPLqM4U5VZaXKKdtaHA49Bde/jwYR0runTp0sA3Q4P75n1BY8rXwfdIouAxqWBIIiQJBlMxwIdKg0aPded5Mfr30ccfxyOPPqqEPhq4X7q5qdTHMmY2WaCx5jjsP//zP+Oll19GvRhT2g0ShdUO7LxYHaCry9WGmmDbW99Z12Ws1yMRDHXdWcZ6LF533pf33nuvdpL4yvuYBMXrToIm+fHzR+W6JxpNT3LiFC12eAaru+HADiXdtLxPRnrW2EllR4ydHYssRztnq62ysqUz9MD92LR5k5Ik9zVWjIk46WJi1JW1AgmVCI02q8tznAzS5LFYaLJ7Y3069nZClOYVeQ3JF3apSHt7J85VXxaFVo1gID7niL9KtjmQJMpzJFDt5WSmY8n8Cjwg5FmYl4nKqhq89tZBHDh6Bg3NnJ/HKSS8CCNfqGtFfOWVfnWzXKxtxLsHT2PbjoPYf6IKLe1dsDF6LEdumKwC2NIy5Doko1du/EvSodkn5Hk4HMElIU/mCyaut5Zsa44lcxUcgskbgqGQdqRGurlvdnCciwb14IED6mnx+0c2+nwA2ftnGD7HyfiQXg0aOJINH/p58+Yq2Q4HGnQSJl1WdJ1OdHtz3rBLjBDHYmkcqWBoTNn7tgwz60tFs3rNamwUw5M+Ss/cAse7qLCpbqYK2J406HRPcuyaU1JotHl/0+1J95/VDjTQtypoy5x2BxbMn6/nTBVNkqQCY+eP1533Nv9mu7AzZQ0FjAYSJyPQ+WrN/xwJ9CSxkzUayfJ+ZH3YoRvqORsJvIfnL5iv9zkVPYl3rBgTcfLE/XJCAR3b6FfSTBejPdHrXw4GD0Ve4ZJlddE+7PCH8JzXjyq52b3yGTPtpLvtqK+rx7v7j8A7YOySklNgc6Uj2Z5YIzHpwH1bVuLODcvlAnnw42e34UfPvoI9h09pUniS20SoT+6P+2V7t7R149UdB/D9p7fhX599U26qTt3G4fYgc84KpM9eBmd+Ofp5brI9Ff8RIc3XpH47AkF0xQaI8zqrSAc8x06ZVpH74l5ZP/VAjOICvJlB4uJ0jEOHD4mBbdPzHQk0LiTNRAzKtIoKrFi1CqnukSeL0yVGFyWNO43JRBInjVGWJwOLRDVzHt5IrjW6pKmuRyL+waDhZCeAnZGJPIexgHVhh4RTSRhBzCAhXmO69i2lOVo73AqIR4C7sXzpMlWUJCTeC0OB9zaVKMmVam000E3P6073biKdJnp42Mm6On5gPEGiZceWHUC6biecOHkyTCoAppqTvxmUw0ISm2inHW0/H7deIYOjwSh+I+Twm0AYR0X99XDqCQ24FNaT7q+uHi9OnKrCazv24nz1Fd0HwcTsJFBOQxkVwhKLF8zAJx69Gx9+6C6EI8n4+fNvCYm+ip3vHkNtYzxMnxfiekj0PbIU5uvq9mrU7C9eegvf//kr2L77MDo6u5CdlY7UdA/SS2cpaaZm5SE9txCZZbPgmbEQzux8vZgkuG5Rn0dCEfzWF8ShYETbjG13LbVTkpTC62yTTpJ1HSzipIvnVgSvK3u/e/fuHdVNaoFjjYkSJ40xx/uuducOBbY1jQnHfCZSsXkyMnD3ffdKb3zBqPcyDSvHjag8eB6jgR0sEhUNKMdtbzQYNEUlzwxodCGr3ZCOD6Mqv/GNb2hyD7qox7tjPBVB4qiYNRPlFdPeU5nDge3BdqKrluSTCGgnGBCViKuW90kipMl9cU4v4w+472vpwHP8m4FvdMOzMEaArunhOg2DMSbipJHsE9Lke6ua3IFlXMcbvGWtCpIMLkZiOCiEwJU63hXSPBkKo0EUVrC/D/bUdDg92bB7cpDicCIo39U1tOKNnQew5+Bx1NU3IMw0dil22Bx0oyVGdEX5OVizYh4evnsDlsyfpeHdew+dxsvb9+O1XYdw/OxF1De16ZqcbBeS6AdL/Bg81u9/Fw9PZ/7ahpZ2nDp/GW/tP4nfvXkAr+08hHflOJdqmlTpp6U5YRdDZfNkwZ4hN7fTBYecs1sI01MyA66Ccjl3+U7ILSQE3CSdiQPBMA5IO5wJS+dC2o966VrNAK8DH6fBv7+VFSeNOxUISZNRromABockMlpgAUGlZrlAEwGDShg0QeLkfTYRIBEuX7ECZQkoCd7PPAeSSyIdBdaZBpGKggR6o8A6cByNQVN0zzLoi8aXBpMq6pFHHtEoTbrwErmOtwKYoIPXvKCwcNghBgu87rzPOeaZKHGSNxIlzjjHjJ6xjTaRxMkkDSx8TumdGUtHnsTJ8XxebwaSMQiMQUaJKNCEiXMwWDX2CUaPqbo+0KRw8j2N9eVIH14XBfXTXh9eD4Q04bg/HEZfhBejH668YrinzYO7fI4Qp0svPjPsbH/nCF5+7W3s2XdIB5zjq5PYRB3Ek6qPBm7DiNq7NyzG5z9+D5564g70eH14fttu/M/v/hq/eGEX9hw6hVohaU4ZYQ7ZwcVSotzP1d+xhITU6hvbsO/IGfzit7vwDz96ET965g3sO3oWftZXblIWJnNIsrk0OCvo5Q0SJyx2BNJziuARJeoqmYV+rhM6cNM1CKlxzPN1Ued1Ea5cwwTT+tWYwWsRDw6KwzKEY7lRbyaQqPhgJvKwWyAJkkQScV9SnfIBTaTzRjBEn/Wh+3iiOiusE4kw0cAP63xJuImA9SbxM1biRoE2gBPpObGexeoU0Yh+7Wtfw8c+9jFV0dfivrtZQSKk651kmAhoW9mpSNRNz+tO4kxkjDNR8Lk8f/68DmP84Ac/wPbt29WLQJuUaMeSnVxGLn/1q1/Ff/yP/xFf+cpXdAw3kY7gNRHnYNAJGBQjHhlhmsdYQDNi8VmzqCYqyx/0+PErnx9H5IHzRmNCDOyxu+Eumo6cxRtQvOYB5MxeiuzSGcgqmY7seauQVjwdDpcTOVlpqKlvxM+efw3/9X98F//0o2fwzrsHcLmhE93ekKpQaWm9GQYTGv3+DAK6UteMd0QF/up3b+GNtw7jcm0zZpQXY/ascqR7nDh17iJ+/vwOfOv//gJ/8bf/hh88/Yqm2Tt++oKuzXmxphFX6pv1d9WX63G26op+/7PfvIm/+d5z+Mu/+yn+n//zc/z4V6/h0IlKBPw+ZHpcSHcL+Q+QLjsowVhUHvoueJuuoPfiSbSd2gdfS228oQTOtAxkFE2DZ8YCOLMLtB05Bu2Xczsn5/ETIfsd0pZt0qa8UomZ6/dBUx2Vdk/slrz5QcU5luw9BO8hGtxE3K9EoqRJMBkBpwzQfTwWMk8UrDMNId1wCbmq5Fy5HX+X6HnQoLHuY2nT8QI7eJzg/6Mf/Qg//OEPNVrZMrCcfsF0fokazVsNvOYc70u0w0SM5d4lcVINJuJpGOs9xbFzjv8zS9U3v/lNTVP453/+50qm7777rnY2GZ0+nDuXx7m6JIJrIk7u2voh40+Yam+kuVyJgPtkYfL2TjHuVeG4W/ZtumVFMZ2W96003K40uOieLBSSKJuFjPK58jobblFdLk+OljQhz7TiGUjLLxFyc8MrvVwlrN2H8PqOPXht534hwYPYJQS278hZHD5ZpQTIpAcXa5qE6FpwWQjzjPzmbSHN376+Fy/sOIA39p/A8fNXEBDy5uLSJNj2jm79HRXim6JuX911EK/u2IffvrkPL76xD6/s4LEOYZv8/rev7cMLr8t3r+3BC6/KPuX19beP4OCxSly61IAu2RfnjaY6Zd+y/z65iGxV9n3pNMqIhmDz9yDc0QJvw0X4WusQ0tVfYrDZnUjNyIFHztstnYbUnEKpn10Jr0uMxmnpIBwOhTUCuUPal+2c2C0SB8mWBD74KvMmT/RGu1lAY0oXNF2KHI8bq5FnmyRKPCyJtp9F5FRIE6HYaDypHEn8idSfsMgz0XOw2nYyvRQ8prfXi3OV57Bzx07NREM3LT0KFlh/nkeinYZbDSQqBkRNlGua15tqM5Fnie5fEjjvrURAD4I1J/rNN9/UOd7M2cxFSPieZdsrr+Dtt97SzpJFpKyP1XG6FlwzcXLmC18j8u/1UWZ8P1SZLN6+flRFYvitP4DnvAHsFNLskoeN7kcXySG/VFTVYlWV2dPmKlEOBoN+HE430ktmIGPmUqTIe5fDqXlDqSKrrzQKEe7Bt//lGfzf7z+D7/z4N/j+07/DT597E8+98rYu07V99xHs2H0ULwqx/ezXO/Gj53Zg2/5T2H78PHadrMaBs5dQ39Kh81np3srMcCMn042k/hjOVV3G86/sxrd/9BL+7vvP4X99/5f4v//yHP72n57F//uPz+Jvv/dr/OS5nXKMk0LmjB4LozgvE9ML8pEtNy5VpjzJSnicTsK2zZR6zxSSZpamAnmlneK6mP62ZvQ01yIWjRvSuNu2ENkzFiFj9go9d2ofZlfiVJILQpqv+YKolvZlO3M/iUKJc1CCCxobPnCJ3uA3C/iQUxWROBNJHDAYbJNEydAy1ImSDsG60VCMp8vLglOekYyMTDFccs/Idb3ZYV0LEnVTc5OOZzIRPsfD6O4eDAYHUYXS1TcRbTvVwXuRbtpEXa8TCQYnUf3y2bgWkJzZ4eViB8wnzTy3/+1b38Lf/6//rflu2XHi1DJ2RMfybF+NhK0eb0SSBAeSmX1ePtDpDzSm1wPLLUtDfiAQwfNi2J8RwqRC6hFCsMv+nVRS0+Yje8FaZM9cBI8oSbs84FzgeTgw+48zIwsuIVBbeiZi4QB8Qjaz5szBJz75CfzJ17+GT376s9h8932YOXcJ0nKLEex3oabVh4NnavDmvpN45/Ap9HZ3YVFeBj6Rm4kvS/lctgdbuXpJSrKSW7eQW68U9qVI2myj9LRUzCrKxepZ5dgwezoqMjNQkZGOhQWZWFWej/tWzMFTD63H1z79AL7+1IP4/Ie2YOviWSjJTkeEbg3ZX7bsiwuE/7vMNPxplgdfycrAlzI8+Kzs56H0VCSLcfOLAo30dKK3tRG+7jaEQ34dZ+W5p2blInPuClHfM5HscKlHwC/7Zmall6RTQuUpHyUMehWCUqzf8H6ggb0Ve+jsidK1xHHFsShOjt+x50tDPFphejNOhRiL25VKk8ad7qnxxvvqceCDmxici+p2utQ1yLb+t3/7N/zu5d+h+kL1wBa/D7Ypk+szippkez1q5GaDZdunwrPMKS7MxJTouPlI4DVk6ZROcOX5c3jnnXd0FRlOPeIycHy1EtGPdfhjTMTJXoCDYzjSyPyb01Do8ovrosRhPZukXL8QJnOgHhqIlt0fCOFsKIx2+bzPlQZ3bqGqx/SyWfI6He7sQp3HmCLqinW4GmyoWIzTZkLoE6JISc+GjZG28ptkrTfHR52a03Dt+vXYuHkr1m/eglVrN2Dx8tWYu2g5Ckqno9+WivrmNqSGglgv5PWwJw2PSvlQuhsPykW9152KLakurHA5MEuUYK7cdHYxPlIxJTWX24GCrHTMLi3EqsVzcee6+FJlD9+9Gh+6dx0eu28dHrlnLVbOn4Fs2V9vJIqwtAPV5TyHDZuEnO+XY9wtx9gkZbXUeYUULhi+XK5DjihPmzzgMX8PQr5uhLw9CPt6dQk1wi5tl1Y0TdpsJtyF5bC53OhLTtFECaeFNC9yGo+8H63bwxbmTRKRS8xoXV5pJlwgaU6Vh228oapTjG5Pd4/eQ4mCZMt8tnQTjVa4ggSDVKggEwWJs7GhUes17pALnUiw3M0AzisPBgPYv3cfXt22TaedMLHBSNHRVKGMsKUhrTxbOWZDejODdtQqNxpUnJxbyXR6jHAdDzCRTHtHh0ZPM6UkO1PMOT34eaQKpZeJnaZEkDBxskdK4qTb0yFGkzenqhAS3MA2iYCXhteHr/x9S6xP08Q93ePHzmAYTWLQXfK5K8WGtLxSeOasQu68lcgoqlAX7GjzL5nIPSLK0tfZDm9HSzzSNSsP7uKZyMzOx8Xqi9j28iuoq6/XQABGVTEEnQv4fv4Ln9fIus999jO4686t2nOtkIreJyS2ye3CWiGwDUJmj3vc+KoowG9mZ+AbGWl4QhTmEocdqWJ4aGYDcswuuVgBUSsZohDve3gzPv2ZR/GlLz6Jz3zhSXz4I/di6x1M/j0DPtnu7cOn8czBU6huasdMpwOfTnPjD4WkHxaSnkblLA3GVWdY6HItSUnCDCGsrL4o+oTY+6MRRERtBoU8Q/5e6TSE33NZZ5TNRu781aJA89Udx5VkGF3bKu3OxO3s/Iz2uIgOkWsVT23IbbnOJMfCSJy3mqs23vGK6QLnnLM8FuVBw/zMM8/o3MDRyk9+8hMl2bHMaeRD3d4m9/VVrkaDDyIs7VTb0IAf/fCHutoH57+OFphCF+3Fixd1HPQVsQ/sBBlMPuguZrYqpv2jbZ5IMufC2HTf/uf//J91xSNe/0Rd9QlbPZ6AumrFsKvqFINJbqYxFe5MCNQmbAaqzMpwDK/5Q3jWG8BeIcx2MVZJopbsQgguuhlnL0NmxQKd5E91ORJIjnRT0l1Jt6W/pxPR8Ps9xiS7EymeLDjzy2DPzEO314+f//zn+N73vqduHO2Rnj6FLumVsKfJyMX62jo4bXaUClFynUumnBsMNlyatMEcIbY7hVA/JUT39UwPHktzoUK259Eru7x44/QF/Csz//zbi3j22Vfx/O/ewvOv7sYvX9qFf/rpb/Hcm3txoaYRa0RlfkKU7aeFlNeIssyXduCIYo+QY5eU7li8MJE+p+gUpSTDLZ8HwgFRRXIlOP7YFxP16ZVOQ6t0Gprl87ibkdNz0qbNhzOnUNufdR/r7cjr3C3XLSZ1ckubcAD/VlSbFtgBo9pMnDYnHlTCXPHidhyHGwvY8aHbvK6hHl1jJMALFy/gje1vYPfu3TqP12DyQTct8wRzUQEKGuZHniiwY8zhmJ07d+p6uBxqofIcDWMiTqoMRj1xnJOKk8qFae6ujrYcDBpoy0gzupPRsu8EI9gVDGGPEObxUESUjxACiVnILa2gTKNkOamfblqHK+33VCbnMNIlGQqIEfH1IEh3JdUWjYoormhogEwGkJSUIuSRipSMbFGf+Yg503GxsQ0Hj57Ajh27NHCAc7oYgbVj+3aNvrp8+YoGE+XIOefZhMTkBINSf6pJq1AxM/CmUAhkrhDfOpddxyXvkTZa43IgXx7gno5unKq8hL3HK/H2oTPYd+AkTuw/iTP7T+CAvJ69UKcJEFY55bdCwKvk92V2G9zsmAwck4WEyUKFSBLPE+JMlVaPitpkx4E3gKolaZdwwIegr1dKjypRTY+YmYOU1PhK7GxNTlVh3RMlUNG16tqNRWNId6dpFN6tEEQyHHjPJTPF4MDficCaRM98n5xMPd6FK+ovWrwIObkTZ0huBVjGsFvUfI7cp5xuwlVdmNRgNNBrwEQTdKXTfUfleT1BJAZjBwUa55XyWWJigg9/+MOayYnThZgzeDzGPweDHVLGDjCgiK79qvPnB74ZHgkvK0aXHImT4bzHReJyoVOnHDBXjMtsMfR0Uw4Ffir2WYm1MhTF64EgfuEP4lg4otNO+HmS3Og2e1wVZc5YhKzyubC73HLMoRVNNCykKaTg72zXZABhv1fIMvgBsvx9CEnI/pIZaSoEmpaVp4qiofYK9u3bo4226623dBFXJvZubm6SByaKdUKCa+W8ff0x+ISwfUJeXHf06hIRfUgzO10u+mrZnhGw6XLiVGp+aaMuee2UzoLIXbi7euGS0uILChn1wyPbflyU5gLpkHhSbKxpfPxYCrMiDXaFk6rYZi3RPtRJ/ZvkqK6MHCQ7nHp+FlSFC4H2CdGpu0P2Fepq1UIzsFSImmTtlOs6EjnwOybzPxuO4rh0dHpFkefm5WHegvl6Y9PdPZnuWnoDJnJZMT5EVHQnTp7U+3wsCQc4JsOJ1JxET6Jj3s/xLEwHR/cVl6gaLQKS58ApFwzRZ+DLaOdAY8TkB0zgTeM02v5JTpwbx7mRXP2CgVSjgfcKF/Tmmp68JomCLmpGSo5lWTGC9z2XieIcTRpg1ped4tFArxPHwhhpyvE2vvI+uh7w2AwIY8Jznsto4DF5rUdaVmw4kOw5VstlwhJxOVPR8f5iNGsieXnp9uZ5sI34Ohp4bzG1HXMb895NFLxfmBeXHUYmnWfHlPcC4wKs4YrxdOWG5Zm5cO68uorXrl838OnQGLPFo+HxpKchRUiFJ+EXK+4V408jPxT4qTfWj32iMjmGeUwMMBOSp0mxyZc2h0uz3uQtWoessllweYaegMwpF0FfN3raGtQVGRJFRdfktYDElGR3wJaZq7lfS+YuQ9msBcjOzYe3uxe9nV26SC9zx1ogxQ83lsutOJ+VbUAlGhayKxU1dpeQ7mc86XgqIw2LHXZkiMH+qBDkH0h5NM2Nxz2pQpY29MpxdgRC+I0oz5e9fhyVB7delGRQyPrq+bGsAz9xSkeFqp8t8MEtPgi6rIM9XdLJaEVUiJTEmy/1YGF9EnW2sgOgilPe06hmeOLG5FYb4+SDSBc0DQgf3LG4oxkDQPKhcaARGu9CYmaGm/Hucd+KIBn8wR/8ga4lydVNuBoNDTDdfwxASQR02zFwhOncJjJHsMHwoH2hvSHxPv7445pH+L/+1/+Kv/qrv8KnP/1pvab8rrSoWD1h1wN2Ljt7e9TFz9zQI82XHrPVo6tWUzOJEQ0IcXaJagyI5aZbcTjupzv3UCisU0zapHLJ8ltniqidtAyk5pXAXTwDnpLpSM3IVeVpIe6SDar7lcoyKCdFwqSSYgAMe73XBiHOJFGfDqrPHHiKypBdUoGM/FJNsBBLccgmH2wai7CGA7/jNsygROIkifIzqjW+i0rhyi3z7SkDi3/bsEpey20pOm54ORJFu7Qlj8p25G+oOq8+pvW3S7ay1OdIoAqPhP2I9HZIZ8CvZFsmx6Sr11oSbiRw/5yG4pPCiNyQXHOu6EHFMNZ5iDcDeD7sHNK4sqc/FqXBh5yEy4nkfEbGu3C/3P/1qp9bHbyGHIOniuLqJlYaQXodGAjIhYxzskd3d5MwOfZlqTeDyQevJYeEaG84E4Iei4ceekg9CE8++aR2hPj6oQ99CPfedy+2bNmiy4WxgzlWUKRwuURG4HKKykhT0cZMnJTLPAmO73WIsW8VY8rIWhrY4Wwo1cpxIc1mIU2lRflNisstpMlkBouQVlQO+xARsyRHRor2tjVphGzQ13XNKnM4cC5oijMNtqwCODmuWjZH6lUMeyrHVq8t+IVEc0HqvluU4wuiIH/Z61elTUeyRa4xKflCXpyvKfSjBLZAiPShdDeWSw8rP2X48UO2kktImBGyFkaiwH5p96jPi5CoT16nWULeBXJcEvZoxEslzdVn6FL2yXXzy3mlilouKS1RgrnViNPq4TKPJQ3uWMZx2ZGjq5dlvMB9WsUgMdBLwE4GE3gPXvqKqvOuO+/C/ffdry7A0e5djncyIveXv/yljneaazC5uLq9+WxSuNGbwOv34IMP4otf/CL+w3/4D/iPf/Gf8Z//4i803R6Xg+N4KO8D/masNopudQ4FjTQ1ZczEyZ4bDQoRVFetsLSYXyqqkUAK4sGShRAcmbkaAJQ9axFSGbRiez9LxGCXrLfjfZcsTz5OZBNpqOUYdgdS3OlIScuMq8wxGkHSOmtYJBdtlajKh9wuPChlid0Gp7RVbbQPrUJkbDeqzCZ5T4eARwicrcBsQV2iEr1yzpZqvRr8LNqfpPWThol3OEZIBiEngf5IADbZr0cIt1jIwMN1wkYBt2ANOoQ0WV9eA+vmZQeK729VWB3EsRAnHzSOwY1lbuZQ4H5otNnrZY5aq/Bvji+ZYJWRwfZhYQfmauObkZmBhx95GFvv2KpjWaNlqOF4J5OJc44npw+ZaSoTCz47Oqth0D3P8fqROi0kSPISryc7S/Qq/Kf/9J902hddu5wTOhbwvhkt8ck1ESfXHKTRjLslOU2B7trhT4ymJ0u253xEfeTFItuFnDi30Friiw3DxAV0J2p0rCikSHCwS5aaaiJJk5AjJKUgiXUSRUw1yg4BA3TIVokc3WoFKkKmx5vtSMFqp0ODhWSPOCfK+6SoTwZKHfCHcMkfFCUYVjcBkwz4hTA12Ej+jp/1B4vsVsE6RaV+7IjIPyNUTvZDAxINIbUvily5Dgzo4nzQRMDr1S2Kk2qTxOkUQ0O3Ie+DsYz/3Wygq5ZqZTTDOhgkvOtdb5L3Oo0HkyMwsvNXv/qVFgbG7N2zR9MAjtQTNoi3IYmTr3Hb8T7oTZg7b666/Fh4L4+kSNjWbHMmEn/11Vd1rh8VicHEgGOLdI0zPSJnOrCzMlrOaHIRrytjEji8QjXKIDdG49KNu2njJlRMq0j4Wba8RlffO4MxZuLkjcZQYY6z8HajsW+Sm6snFp8cP9QtaJcPS8XIpssJhjjmxmWxQhxsf79imriApCkKk2Oa4+2SHQs0+lZUMDMAcT4m51ISiTYWz4qubBYuxTXTnoIZUlLlAT0WimCnEOYbviBe7fbhfK9PzjugczQ7+mP6qmObVmNK4XNtFdaB19MrFzYq9bSJQo4/+Cy/D7aryHidzO+W9wVCmplCuJwLOij2aVjQnctpRHTHx1eKT0OOkCbdJbfydBQ+gIzko7pOFHy4Gcl6PaqEDytVK8nyb/7mb3RyNsvfyftnn/ml9sANcV47+KzwvmXEKgOHaMsSuY+ZHpHZZpggnknFRzKqBtcOTgXiSifMMfuXf/mX+Pa3v43q6uqEVlYZDHbqSaS8zpyKtHHDxoQihomROlIWxkycJEySJ8cLcnPiY51XojF0imEdamIDP+F8wQqbKB2RS7zdOA0k2NuN3o5mVZm6HY25qLyUqRD4IHXpFyUXsTvRLe+ZZYfnOVbw3DlGeCUSwyVRmXXBIK709uCSEFFHXi7mb9qAux56AJvuuBNhacvfCYn+VW0j/r/WDvxzpxfP9gbwpi+E3YEwjgQiqBKVei4cwxkpVUyZl2xDqjNNCH7o9IMKIUu2NzssjMUslhsqJyU+h3M08IwZ9MVcvGF5ZdILtxAJXZgcfL+ViZORq5yWQfJMNNCALqUrl6+go71j4JOxg5F8dNPSWAzOSVtUXILFS5cgPy9Px5YNrg8cA2U05uc+9zmdVpUI2KGhUWfClNFUkMG1geqRdoX2jB1ERjNT8V9PVHNhUaF6GahKE8HgOgyHMRMnd0ji5GKvednZiIpRbhTibBcysFbzuBp00ZbaaLDj0x/YW2Ne1WBXG/rFoBOsJDMEcXksG+ckJmDYJwxC8FSbTJrQm5SicyYTfURYa6vmnGZCwtznD6LR4UJuRQUWSw9o4fr1mLthA9bdsRV33n23lLuwRHpE9jlzcSkzC6dSHNgvx9wdDGOPKNR90kT7pOX29Nvwtkj8d8RAnw9H0CONzaXD4snuh26vvmhEE0IE5Tqly3mVifJNk9fRnKzcGzW/T86hWerSK79nFG62KM3s7Bztvd3Krlp2EBkgxMnznHeYCEh6Fy5cVEXCHjLdPWMFDTLVDZXlYGNRVl6GZcuXI1PU/q3cYZkssPNBtcnIW05p4BzD0bwLvB5M08bxTmYWokveKM/xRZwH4naFzw/nazJAi+Od1woSpieD+c0Ts1eMb+CzP9L216w4OTE3P0eIU4xFmxBnixhWRl9SYV0Nuis53pcjFWFfmQeNBX2Idrej/yq3E+d1OtzpA4FANwZCm6riUkUBB5JsaJLzG4viJOdz6xpRmm/7A/hdVze6pZOx5Y478LWvfR1f++pXNZXUPUKYWzdvwr333I2nPvNpPPb441grvd/islKE5SG+KMc9Kbb3SIoTe51ZeNORgZf6k7EtEBL1GUGvfD/ag9svJBvhdJ6+GDJE9VfIdeD1GM2k8xx4zl0kf47zyHWmL4DRtFly3W/lwCALvM8ffvhhDW9P5HwZSHLu/DlcuHjxmsYieS0ZiMJVHAbno+WxOTeU8xGnyhzOwR3bie7kXs/+R/otDSqnODzwwAN49NFHddw+kWNxaTKm7KRb/lZxm/O8J/o6XgvYOXn99dfVhXstHVGCHVo+m4n8nm1Ajxo9qiN5dsZs/bhj7pABQpzP5w+HNCUc1RWjL/nf4OanWacLl1MvOHeQk+6Zj5ZjnJrJxtfz3nqSUwqi4pKFxFtFcZ6PMMqVeVpHhhW4YyV8eMnrx2s9fu1QsM1oiJkuLSsrE540NxxOF9IzMpGbX6BuwdWrV+EJIc9PfOITWLxgPtLsDixbsRbr738U65/4uJZ1D30Eyzbfj6yS6XqssKj2mLRhX3SY/KWxCGzRIArlbbG0Pa8Dr0ci3YB44Fc/GqW0hIKICPnOl565FVV9q4PBBEw6wCASptHjmMlIoBGlO+/woUPYvn37mIJIqGasxXiZxcr6Le8ZKiJGBk50QBafbXaME+kkcFtuxzLRBpfHGM11NhhsI+s8EvkNg0l4feldSGRFDl4bZkvatm2begdudrCNeK9PRU8Ghz8YkMWxZar8awnMogeIWY5GGyfVwLG5c9XDNNqzlnDKvcEgc9O/z5vmlPQEUhxOFNptOgUjT1QNA08Gg3/RzUd3LscLO8VqcwUDfmPPzNElr6g0CU7YZyQt0+ppYMsNRT/8AR9CAS/mMIWeMONQ58bCmnL+JqebnBaiZRBQjTMVXk7biEaQIkrPIReGSj0j3SMXyQl3WhoapNdaee4cujq7kClGcvr0CnUrVJ2rQlX1RSzbeBcK5y1CRol8npOPtMwsuD2ZsIkijUjdAp1t4OLXTLmXPCh5BOuuAVfeLiRJmZbUjxVMvCDnMRp4Ppyt0iLX6hzPJRyBV653ntxMnGjMXvpoJDJRmOiUe4PB7bg998FXqkhGvA433kLFyNzBfDb4kNLlQ6PE3xN8bx2bUZ/cjvuiW5bLXjFqk6TJlI/8npG9bGtmTLEm8g9FBNwP60YDQZcW3b2MTqR6pbHhmOlovW0aTtZ35oyZ2gHg/rgfgiqXx2XQE4/BfTPFHpMCHD1yBBcvXExojVC6QjnEw1caRO6Dx6EaoNGiobKObZ0Lt2Fhajd2KhJKwC1tzA4HrznVBtuXy7ERHNu0wDrwXKhqWAduxzJa+kDr2vEak2zYdqwX25ltxOPz/mT7WPXnklaMlGZSBZ7faGAbUfXwmvBY1n5YVw6T8LisB+9H1pn7f+9YclwunVUv59Y7yHMxHLg/jvfyGvM8uA+2G8+L14T3KDuEPAaPxetCIuI9y/YbDXx26BZnQCH3Z9WT7cV7a3CniCld6Q7nsXh9+EzxlefKa8Tt+Bl/Y93TbG/r9/FnMKq/4bnwGWASC3pxRpqbyXMtLCjQDtTWrVtHned7TcTJirKx6Xs+dPgw7GK0M6VBOJmfWWk4FWMw+BeJMyjn2SvGvDoa09R0DDZJFnLh1BSnO0O37eubGsSpbZacgk5fL3pE0dHFmSPnlSmKbTC4HWtJddYopMnk9S/7Q2iRvwvkxp8vFyDc043Lly7jYm2NEmdOTjayhHgys7PUWP7gBz/Qm7GoqFgVXSgUxr79+3H8zDks2nIv0gqK5UrFCY9tnZ6di6KZcxHo7UTb5Wq5W2K6AkryQBJ3gsq/T9ox2NOOFCHOdU4bFglxsmMzmtrkqTO5QnU4hsNSF45hM3q3oqxM50hxvlSiA+3jjckkTgsc7+A5WwQ12ngLjSe3oZHhg0wjzgedx2XhA88Hm0aQBoQ5TBmxyYn2Vu5PbsdxN7oRmfuWhDNcvWnY+CzShciFmGksaHyOHz+uxm04oh8M1pMJ/KPSUaLBJ3lzP7zOTPdHg0eVxZ4/C9WxGk8pJDlvAnNXuQ8aI7Yhj8E6cgUSEhA7BTwW31vn8u677+ox6KZjSUQ1EDwXgsdie548cVII/qiS0Ow5s/U7gu2/Y8cOPR4NNcmC7tdEyIDb8hxIKCy81kwUzt9btpFBRKwzyYAig3l9+X0i58C24r1L42+1Fa8J73sadR6D9yP3x7Zip8I6VqUci+fMzgwz4YwG677idWR78VhsQwbFkcB5j/Izju3yVQWTHIudgEQ7Miy8D3kM7oPtw7pT3fFcrDpoLnS5b3lf8BmxwE4cv+PvrWeKr/wd24rv+VyRYHkcnju3Z8pEunpZ3+FIk8iS/S1euAh//Md/jKViK0azb9dEnLwhaQj4IOmDLhVixW1CLAvFQHPayWAojco/dHWGk5JRJUomJPc2+ZUJ3p3pWXBl5nEr2Xe898ApKX1CCBM/d3M4sHJJiAb9sIX8yJM/qagLhUAtOudcywYqzHAU7wZC2NXrRW1fEpwkthXrUbhkNTKnzUaqdA44BSfY2oJ+abcMIczS0jJ9kBvlgeMDPK18GubNn6cGhBefvdNT585j4aa74M6WtpG6XI3mi+fQWnMRdi7UnZbxQcUpnY7+cBB9QvrpYT/WpToxzZ4Cj1yb0YiT58eEB2fEiJ7gouJyA+cXFmDZ8mXYvGWLEgmv/43AjSBOgufLKSoWCdJQsgc8HHgNeV35fNBgkoRo+GgwSDpUBJyj9txzz6nxpjEiofB3vC/omqW6Z3oxEhfrzediKNAQ8/fsVdNFzOPQaNCQk8RHU5sEn18aYhqci5cualQvXWQ8Nsd4ec7n5X6kgt311i49Dz7/9fUNqmqiA0F+I8FqExpFqz34N40zOwlUg9YcVmtRaW7Hwna02icRcDueC3/H31dVV2HW7Fmq3C3wHnr22We13dh5YSeDdRvpul4Ntj2NOc+l+nwVOoVEi4qLsH9gHi6PzWvBV3ameH6JnMNQbcX98HpSEVG9kVhI+Lzmr7zyyqBjVYldaVQCSeTa81hUf7xf+Hsei88MvR28Jjw/zmPl+fBe5jYkc/6G98xoYB0sZcz7ivtnXXkuTJHHY1nPJO9jZmliWw0mTsJqE15TJuu3OlS8bnym+DteR947nPfMVa/4OQn66n1Z0Cl2QtwMEvvUZz6tdiJDRA3JeCRcM3Fyx5bkbpSG7RUDm2SzY54YqoyUJFWYH4D8yabhLXNJeracUM9lyZL6YnBkZMOZlS/7jfdMmE6dY5/MVTv+xBmP/E1kv7pNVM6LU2aYak5+ydmrjUL8lyMxnJcOA1PpnZRzr5LX1lQ33OXTUbxgGQoWLoentAIuIVGny42oKFd/VxtapIeWkZWNClGjVjACjTF7XlQ1fM+LzF79ycpzWLDhLqRlfjApdSwaQU9bC1ounEdXSxPsWQVI1uXXBl1sabuYrxvJgV7kSf03iOEtprtYjjcScbJVmIyhQ87xOM9NOgSdctPPmDUT69av13XyWMdrIZ/xwI0kTl4vnjtdqHTt0Khw/zRQVxtDGgt+znrSCLDHTGPDh56Ggz1gkg9731Q4NMDs4VNZMvsJV1ehgbSiPUeqM40S98d7hgaFCohGjQFGiRhOgsTJHnlPb4/+liTFV5Imx/54nufkfqS6OXzksBpTqo1AMJAQaRJWm/B3rCOPwevBeAl2FOj+5/c0gCRPtg23YaGRTYRwLHBb/sY6Dx6T007YphZIrL/+9fM4cTzuGuS2YyFNgs8q98199cjx+AAtWLBQDToJ2ao/68B9J3oOQ7UVC6/DY489pvcKj817h8f5wLG6OvW7RK89t+O9wjpax+KqMKtWrdJ7nteaBMSODNuJ23H7REiT4L3F+pD0hjoXdkit+5vnw2Ltn8qevyesNuEzxW3IPexYsINndS5IonwWqFpJ8Kwrjz0Y5C7ea0xwslBU5vp1a/Hgww9jy0CHhPUaDddl/WjsGekXlRNqlQeoTox1lZAik5VfzZt9cu402pzLOU1Kunwflt9x9Y5IwK+J2993zQplJXN5rfE2zkKacsz4FJjRdFccDiHDlPRsXJCq7QuG8YY/iJd8Afyk14fvdPvwb14/dsrfTVLbkpkzMG/LvZjzwJPImzEXqelUgU6kTpuFwqUrUDB3Lmqkh35OLrC14gJ7dcxwweWPGDlpGbDhHzC5CaWt6s4eR1dr04CLlnM5P5gVo78viqi3C45QEDlyUxZIZ4bZgngdRgOvQkesXyOlm6UuXX4fPEIYdDNzTGK03titCj7cdJPxenF1hq9//eu61BcfNhIpHzgSLNuH21qFDz8fbhICFRuNHN/zHuC15u9IyDRUjLZmmrAvfOEL+myNRpoE7xkeg2A9xqMMZTy0yynPLb8b6jfXUrivwfcTO5I83/E8hlWGum+TpbOeItdsqO3HWuhCoy1kG/E+GGqb6y3cr+V54CvLRBxr8HF4Pdh2Q213vcU6hgV63Ji0YL100i03Lt2m3Jb3BOvFQvtIQrc6jHyuWPien5GgreePdWfh77gPHcuXDirHM//kq3+Cb/33/44nP/KRMS3qkCQ93cQYZAhY4zPf/r//gGphfoc8WOudDtyV6tS1Hq/eMZtIV0oJRrE9EMRBUWouudE8JbPgmb4AnvxizVvLcc5Aj/QUBtbZHA+QSGK98R4h89HGU+qNTgD9XNqLAULNV2APeDXfK9PwcUyTxB8SRVpaUoqZcxchf/FKpBVNg9Pz+8sWhTpa0Vp5Au88/SPkFOZhgxjcT33qKb2A7rT4OnO8yOxlsRf1w29/G69uex33/dlfIltUrIWAnEN77SWcfft1+EUNItWDZLfnA+dCxR6TOvfUVaMiEsBqhw2Ppjk17eFo/V1eI6ZQ3C775kLjJ6RT0N3ehn/3x3+Mf//v/726aXkT3yiwR/mZz3xGXxMBHzwGPvA3H//4x/WhGcqAjgXs+ZKoqAb4DFBJ0g1FVclrR/XB6D9eU15Pq2fOh9J6+NkBIVlSOdAdyt6vtWwYiZjfcbtEQCVDNxuJmPUZT1Cls7DePDdr7U2LqK8X7PnTWPIa8drwXNjJYJtawUnjBSp5FgtUpG+/9TZaWlvG5Xz4/PK6sb14D/CajDeoABllzVfeV1RuVFZss/EEo0st9zlVm+UtSWR8NlHwHOgBoAfHIlCqUp4TiY+Ff/M8+Z73Ha8Zny16WahKed0skcHnjcUa1rA6FYOfNXo3WPieAUvW8zYUiY+E6yJOKqYL1dX4/j//Mw4dOYpOkdBlDjvuT3MpeTLFHPvK1gFYrYj81RDpw69Fub0iRtktRigtrxhppbORM20ObE63GKaYKFCvLiPG1/EAp2tE2hrkXRJShGicWQXol/qNvPh1HP2xMKJcA9Tfi3AkTuTJkTBSZJ9OewpmLVmJ2as3IbV8NpIdw0yiluP01tfgyDM/EIPbjnxRl3/0pS9hxcoVyMjM0uAhu7QdDT1vnF//4Ad4682d2CjEmTmIOJuvXEDNqeOoO3EQ/c402KXtrk6A0BcTY+3rQVt9NdYIVd7ndmKtdGR4PUYiTu6BrVEXjeGnvX5USseGU2mYLYjE+cf/7o+VdMZyg403xkqcfPDpBuTafVyKKBEFNxYMJlHLLUtDw4ebD7RFnoRFmmxDPsysG93IfJDZ22XdrqV9rTrQJcXjjSfY27fajPu33I2W++x6YSkBtgePMZHnwvPgcSzwuvBajedxrGvL8xjv+hNsK6vzx2vAa8FrcrU78npB8uG153F4Htw/24vnNV4YfC6DYZ2XVXh8XieSJ4mThEkCt9y53IbgdnzP54z3Ep8j63pYzxqfMxaeG7e7+tiJ4rqIk6CxYDTgm6+/jhNHj8EpFbo3PVVXBCnn1BQxx0M19Y+9dHf6kS4nmpqehbTCcuTNXwm7KKgJIU4hvHDjJbkoYsBEEXqmzUWsT1SjqNr3qX04MGJLjAWX5QrHb9BIdxuSgr0oLC7EjHV3o2zlJv18JIR6OlC393WcOrhPe1I05nT1UcU9/9zzSM9IV1cgH/AdTz+NfTvfwcp//1/gKYsTJ5Vk5f69Ut5FXzgAW1qGupGvRizkk7brRHNLHR62Ax+Xa1Ei14LO75HOlMFavbF+nArH8H96vWgNBFHoTsP6jRvxkY99FPfdf9/AlteHoYxuomQxVuKkotm8ebMuNcRgGz4sN5L4DQwMJga0Kyzj2TEeDtd9BBp5js0UFBaiRxRoQIiQgTMnQxGE4u7+D4B/cy7kTFsK1ojCcgnjc0WUMLMIJRhkcD1gABPdtI7UNLjSRHlKGT1LEcdcOVfShSRnqk7z6IuEYJf301dsRm7F+yHuI4FrfBYtWIPyGfORLud97MgRjSIjiVq9Jl549u76HU44c3KQNDANJSKE3XLlErrqLiHa266kOXj6yWAwWX5MiHOG0GSp3ETxlVBGT3pAPquP9uFsWBSSdCpSpUeYlZ0lxLkeM2YmlnZuNLCHSE8Fz9kq/NtSZSPB6n0ORbzDgT1Kummo5NnDNaRpYHBrgs/2ZD3f102clPQMGpkpJa8gX9g+CXViBBmR2SGynuZwqFMpFiLiUlsOumeiYcSC8fFMK5KWY53JV82ZHA9w7UrmoU3muptaElMgrJMSrGwa9fUgReqcnupGVul0pGblDmw1MnjM9KIy5JRNQ3q6R8eLODYRFGXHUPk5s+MJxUmcMelU2EWJJkldiUgogMbqs+hua1YyJYEnpVw9kM0el5CLbIugD2XSfIVCHMxNO9IZ8jtSEaOca4WczoXDSlCZ6ekor5iGhYsWqXtjPEBXCyPgGELP8Ha+svNAV8xoYLvQPWN1MhIByZKKnq6ayeiJGhgY3DjcNMRJ1xeNKlfcXrl8uaaJaxLFcloMb120H35RLoPPhQaaS1VlCgcxWYJDvuPIG8cRwwFRSqLkSG5UcyS2cYVWhAe8tsZl1G+/kEq4pwN2UZ0ZLictc3wJsCEd0ldDVJ8oybS8AnhEoTe1tKCuthZh2dcdd96hha5aqq+wEF5Kbq4SJ120Yc6DqjwFnxCPnVN3RDlfDUY9Ugn3hYNIkX0WyHnmU3EKcY50oVl9XpeuWD+uRKKokuvHidP5uTmYv3ChBq5QtY0HGETDie3f/e53ddksLhvEzB4cGxwNDAjgOAdJPVHw/mTwyY3KdGRgYHDrYdy64DT4HEtKE5VCk94nhHlYjO+lCAMJ4ttY4N8MVKFR5zJX6clMn5SEYG+7ppGbEMjxkuwuJDvd+notPZP+aERJickFfOEQGhrqcO7FX6DpndcRbahFv5BWIsgsqUDZwtUokLp0DYRUM5iEA+8kTaYHC8IBd+ksJDsc6GyoR23lCe1YcHqLztnUgKCrIEqszyfKXerIRO4VDhty+WYUcAuqzYPSKagW4qS7vcfvQ0lpqYaF0805XqBapGuWEXIkS87HYrQeoxBHCzxgAA5D0BNx61pgEACn/DAAx8DAwGA8MG7EyV49J5nrxH6PBxFRBWdEuVyQVy6ETJNomXDyqFsMP5O+K3Gm2DSaM+LtQTQ4fuHOH4QQJ12cHOOkWrsW1ckEDbIP5uaNyXufkFT9+TO4fPQALh9+F43HDqD3ShX6RJFCCXZolyITPmSUTke+tBlTlZ05fVoJgYQSk/bq7WoXDZ4EV2a2kGUQbVcuoOn8WfQlpcSn0aiL9ur6i9qMRRHz98ixQ9oxKZe2ZRrEq8FfWoUICGkyXeCJUAT1Qko2+V35tLiLlqRD8hkvcHySitEKJ6eCZCIAhrszUm4o8uRvSJZW5pFEIwiZOJ+eECaWoKvWwMDAYDwwbsRJV9gsUZ3LVixHcUGBGrfLQpxccLku8vsLQTvFaucKcXKdTgbKcG5klGn2SDhKrQO4FoIbAtZukjjep8FAY98vkwwku0VRuz2wu1J1setuUVBVFytxcPtLOP3SM2jasxPhmkuIdXWiPxhU9+7vQX5nk/bKnzcPISHgc2fPKiGQRDRxgZAfZ1zaZLue1ia0XDyPtpoLItPThw0I0uNEw4gGemEX5ZtJNW9L1sT0v5f0QE6d7mXSekyuC9fbrJRrxVVg2uXVI0S5dcsWnYBPpTaR8zbZWWAyAI5z8vxJkFcH/1gqlfMUmZGF4fejgR4Fzg1kBh4OJdBla2BgYDAeGDfiJOjSY+7BMunh9/p9iIl6uCzGmIkOvGK9B5tD0glX4CgS4mT+1JgYfk4ZiYZ8GmXLDD82pwtOTu4fNeo1AVAtOlOBIcYGx4IkIU97fimchRVw5BbDlpqmn0X7k9EhKurs8UPY+8LTOPHmC6g/tBvBy6JAtTPwQThEtZZPn6dTcVra2lB5thL1dfXw+YPwRkQ0CrOFRIFdPnlM81/a07OR5GBA0NBtQTdyLBRESF5zpV0ZeOUS8mD3gO3MSGb+kvl1ayMxHA1EsMMfwotyvJelMNlBWC4Qt3E4nZq1g0E1kzXYTvJ89tlnNViKJGmBpMnAIQYRMacr07AN/n4oMCAoNzdPPSAcPuBcMQMDA4PxwjXlqh0OjFqkkWpta0W9uh4DCIrhi8nnBWLw08QIM1DFgqoeMdYXqNrEmFPXOD1ZcGTmxgODxMjrainjsVIKVUwsLGdsF0JOhTMtQz8b60osJBIqT2YfSqHbV/bH99xvn3QNOPe0t6MdQekEBL29CHR1INjZppG4SXIu/E2SKG0GQDnkd13Njeior1H3JZMLO5wOHDt+Ar2RfoRifWg8f0YnhNuEYFNI0sNkO+oLehHp7UJQVPtsYcpVsh8mdWf7MgWiTjORNj4uHZnToior5fV8KIJzQs7VPj9qA1JfuQ5sExKPKzVV68PsHtZE6PEA3a2MJiZR0lVrgR4KJn7gZ1SWnKdJkmTOSSaYJmnyNxwXHWkslC5Zpi688447cN9992PlyhVjzgpiYGBgMBLGlThpXK35ckTlmdPoFHUQFvVDs5XNMU0x5gT/ph5i7MrZaAynxJg7+2K6Soorp1CJs1/+HrclxoQQ+rnYc7LtuojTQnxeZ6oSms2drjljOVOyn+pZOgd0J7a3NqPx4nl0HjuAaGcTeOpcPk3HWO1CulKHSGcrgg1XcKW2VsmUhcEyvmAIAel49DTWqNK0ZXOqD9tuKAKQ8/B2aVKGqJzPEocNa4U4OX+zRUjzrJDk7kAIr0h5WcppIczL0uYNQtZNcn06pK5+IWe6bTm+GZb2OHDwIELyGd2cdNeSPMeDfBgURFXJpNG+QcRJFcmUbsw3yaXWuLoBC5fb4pJJJFIS61BgvXjv8b7jGob0evy7r/w7zRjErCGGNA0MDMYT40qcFmhkacQ4wT/g89Guo0tKxkAwkHPQ9AhS6hUx4jXhKPpF8TAVXmpu0ZQnzg+AhEcFmpoOmxRNvC7nSnFNo90n773SMWhrbUFXzSV01F2Er6UOydI2/YFu9IkS7ujs1OCY7o5OeFvb0NvVhZ7uLvQ73ELOmUhxMlXY7xMA690X8iPS1Y6+3k5kykELqWhl06OhKN4NhnGQi2pLG/dK+yYJiTIAi12bnIwMrFi+XLMXMeHxnDlz5No54RcFSld5RIjTK6q5omK6KrnxCBLiGCaLkiCviRB7mNHKI6jI0cDxdapMngcTsD/66KNKoFYaNwMDA4PxxIQQJ5MiMBijrbUVvp5eJQWvWHJnUjJSxZBlDyw7RpNGA18vRp3jbnQVJgtJMCWeXZOwi4YTYqChpyFPFJz3yNywJF4qOCUcEozsh3/bZN/jSZy6hqgQMqeKKIGyMJDI4dTpJP3yPiznGBASCnZ3Spt0wEcXrhRvZ7sor3gGHS5g7RcVFhSlGRKCC0sL2TJy48kO2FBSRwYP9cci+srEEf1BH6K93Yj4hGRDAWlj6t4kdc+ek31cEsJuoBs0EESK1JNkWVZahvnz5mLVyhW6lA6XjeLyUZyvmZOdA6eQZ49cty65bt29vcjPL9DxTiZnuF6QyHh/kIgZiV1WxsTmcVXLKFiSILNR8f7RFREYSCWdMJIghwHoOqYKZl05BYpRv8xcxbFMJr/meotMUG3lVzUwMDAYb1x3rtrhQNcbx7J+/rOf4Te/fh4RMWI5ojbnOux4Mi0VMx2cvxmP+NwtquhNXxDng0JgeSVIL5+D7LJZsDlSEY2E0NNSr+SWGDguGlMSYcBMijtdp2/0yftIR7OqQldOETIKS4V8+jRxe1CIJ5Fk79z38Pj973jMflGDUU6zEWKL+b1yzJgcS5R0NJ7JPyWJ7lHpRHARaiE2RpTye7qAuUapLSNH2EZIU35HUJX3y+/0vbQNV0GJ+qX+nEM60Lngyi0MAmInIZnbUzkG/Ep88+fOw/pNG5UoSTAkLxKZBWb2YYTrd/7vP+Dw0SPwB4M6l/NTn/qU5nodT7cnp6RQeXJMkxG11ooSXPOPY6G9vV65PvEpOqmedCVbrqRA4qTCpKok2fI9z4Nka9yyBgYGE40JI05GQzLQ461du3Ql7u07d6m6K/VkYI3Tjs2pTixzMisOcDIYwTuBkLoVQ54seAorkDt7iajO9GsmzmhnC6I97aL4XLB5ckS1uRBprVfidOaVIqtkupLU8MTZH1ehso02EIlL3lsgATLhgL4nQUq5GiQzTQzfx4jXeEYf/k7Vs+yLC0bTzNPWv6eMBawX0/NxDDXJbosfd4AUdaoGCyGfMb+vloG6Ej5R1mGpG0mlTAhlmqgzpkScMX2GKLWy+LJVouw4Hk3362BlRjIngXGs8aUXfquL16ZIZ+ePuTqKFP5mvAKFeI8w8Ikuar6ysMPFv1miotJ5XXjOXDORypPkSKKnAmXhe6rLq8/DwMDAYKIwYcRpgYEuTLH2r//6r6itE+ISA18oxu8utwt3pjqQL0aY2YX2itp8zR+C35WGjNxi5C1cA7s745qIU927XW0IdzWjTwiLZMmIVBJpnDhLkFk2Ww1ySNRgUD7/QIL5AVLkfkhyVHlUj6pkB8gpKn9Ho2H5jNNo4uRFwz1Y8Og+Y3FC5X6S5PfJsoGSJYtuL38PpZLo/h34PE6W7xMnjxkZIBRuQ3dm/NhJehxPViYKi4vVjclpJVRmfOX6c0ydx21JWiRJFhISi7UPRrg2Njbimad/gaef/rlctzp8+jOfwde+9jVVd+Mx1jkSeF5WOw8FQ5AGBgY3EhMyxjkYNNQcl+LyY72dXWjv6EC70Aa9j4z6ZLBQUIwkoz/PixEPy3ec4+guLNcgG5JVyNcrXBZXd6NjgIh4gH4hge52xAJe9LHofEo5drINKULQXEWEy2+pOqU7VbahOzXq7USkp0Oz8EQZrcpUgEKuzFHLVVz4mV+I2dfVDm9Ha3zRbZ9sG/LrMmhcqkwLV30JBbUw2pVEnCJ1Ix0q6bE2/Jv1HRIkj6sIRH5HpRqKCHELSRKMhI3vVU5b3q9ctRIffuIJPPbYY9i0aZMmAuBadFRrJEoqO0b9Ut1ZU0L4HZUk60IS5XWrq6/H+aoqvXZ0j3LBZS62PNHEabXJcMXAwMDgRmLCFScJgsaZq5Q//9yvse3ll9Hj8+mqKOUuJx4X5ZklxrBBCPJX3gC6hOw8mTkoXH0PHOnZY1KcQimqDvsjQQ0EIhkG2xtFQYoaFFIg6TDtnmYAstt0Pc6IqEW6VBnpGRZSYSQp3akUNWkuN9LT0pCeLipYVJw71a3zLFOFOFzy3pUan99oGXO+knT42dUZcFTh8RgkrUBQU+21tbWip7sbAa9PVaSSqShN1o1TVqz5on3yG66xSWXryfSgsEjU5MIFGkjD/TF5wrlzldrOd999t2bL2bBxo44HkuS4XwYfccyZ6f2q5bW4pBSLFi/SSFpud3UwDX/zxhtv6FqrnB7CQBxGq37yk5/UQJ7xctcaGBgY3GyYcOIkSApUNzt37MTvXnxRJ7S39fbqWpzrXA7MEKIg9WzzB9ElyjPVk4XidQ/A6ckRwgnDJ6ouLERId+lIYOahvoAvrjBFXWomooAfSaL0SGp0Y+qyZUIKdns87ywTGHAKhsPpgl1IkcTHsbM0RnG6SZrp8GR4hLDi0Z7WeBq34furA1JIKCQgKrvBxMm/lZwHiJNBOMxP29rSgqamRly6eBGBsNTNKfvPzNOsSZpbV4gz1NmGgHQAQt5u5BfkY9GSJTrtggTGsUAmBuB8Rwb1fPzjH1eCY0AP60bCpNv19KlTmjxAV7wPRzBrzmwsWboUM2fO1HPktleDyQe2bduG73//+3A5ndiyeQu+/o2vY7ZOW5lY1WlgYGAwVTEpxGmBk98PHz6Mf/6n7+Mik3UH/UJUdsxx2FGUkoxjYtB7RFVxOkrJuvuFQHKVdOn+ZEYevo6EmI9JAOhi7Y6PL4p6SxnIGkMSiwlp0T2bLERaVFoihJihpMGpFhz/Y2HkKd2RfCWZsFhjfyRFS1GyDCbMsYAkSsJrkfZglqWq81Wqxht7AkjOKkT29AVC4py3GUd3bRU6LpyCr7UexUWFGhX7jW98Q12nmhP48mVdpuuFF17Aww8/rMS5detWJXcmG9i3b590WF7SqNTlK1fgjjvu0MTnoy21xcjWvXv34r/8l/+CtpZWLF60EN/8y7/E8hUr1P1uYGBgcDtiwsc4B4Mk5En3ICs7Swnj7LlKDWyJCAF19kHX7mT2Gs6HTM0vRYqoGrouY0xeHg7p60iwp6YjNacAruxCpOaV6jhpRskspBVXwJ1fDod87hUCtvWH8YUvfAGPPvaYujY598+ansHgF2vhY6oqRm3qfMIBErUU5bWSJqG/lfMMC+nRhUsSraSrNSQq1SGqNitfU/NZINnr2GlPJxyizrNzczQPK4mPdWI9qVivXLqky7oxEIhKkvWkwuT+FyyYj02bN2PN2jWqVEmqg12zQ4F1oyv54P4DaOto12AmthOjdQ1xGhgY3K6YVOKkWuO4YLYQZzAURG9PL8LBIIKiMhkg1C+EouN8QhqObFF8LrcmEkiUOFNIbHS5pnk0DR5fnRk5cLgzNKMPE7J3NTfAFvXjs5/9LFaIcqLyorrUKRqiQK0pGqyrpS5JMFYh6V0PaVroE9VL93M4Iiq714uzlZXo8YfQZ3P9PnGGA4gw2KirBclJ/eo2Zt1ZZ8td3CzqsKmpGQG/HyUlxUqcPA/WleeRlZ2tC2bTbcslvFiY4o5rf5JcqVwHny9Btc9xU+aMbWtr17rGkxbEg4QMDAwMbkeMLDkmAFRvJKuHHnoIn/nsZ1AqRpgGe/CYoOWeTXwKShzcPuz3aQTue1NJ9JURuf2waUaf+Jgk68Hj3gjwPPsHVosRGn6P3BjApC3A760i5yAbSGciBfI/IkJwXPSaheOlBImO62cuXrIEQVGX7W1tuugz90v3MwN7iIMHD+KHP/whfvCDH+DHP/4xnvnFM3jhNy/oXE2Oj3I8lNfBAkk0VZRpKTMK5eWqAuWyXhwrNTAwMLhdMenEaYHuwg3rN+Djn/wEZs+fh04x2iQCizyvFSTJsC+e1IDTRHpaGtHdUv9eCYoii0ZTVEExc82NBsnJmsRP5Uii1GksHNf1daOnrRHBni7NFiTUL20UhV9IkwqRRGaBrtesrExNnE7SpFK0vicpU1Vz3PNLX/oSvvrVr+IrX/kKvvDFL+BTn/mUjosybR0VLOtggYRM1cprRbcwo4JbRNn2dHVr58bAwMDgdsQNI04a+tKyUh13u/e+++R1k7pJ48Qpha/XQKL8fSwaeS8HbSToExJ6v3Ddz6iQVXdPr0b63mjYREYyYpXEmQSmAPTGkzJI4fxVEihd1NoSoiC5YkmvkCKJ0VKcBNuTwU5cj5Pf8dwsciNxkvioPNesWaMkuXz5ciwRhcokCUyQwHFdErjlprVAYud0FV4bqlGv1wevT+ooxG3I08DA4HbEDSNOgmqG8wg/+tGP4ktf/rIGnej4ITlzwN063mAKu35XCnqYcD34+wtMTzaYvCB1YG4ok7f7etuFMLs1oQKTKMRdtckamKPEKcTIxOtUlYPrz7ZkhDCTIwSF1Pidpd7ZpvyexVqbUt3A7GRIO5OAWfje+g1h/c2xX/6O++ZKJtw/A44McRoYGNyOuKHEaYERmsyjWlJehjSPJz7eSTfjBBBnqqiqNIcL3UI8U8FVSzBy2M7xV11v8/dBouOczhQpdls8spcBPYPrT7VI4kwlMcrf1vJdJD+SKMcwmcjg3378bzq++aMf/UjL008/rXNAOe2EY5eDVTiTQXBM1QqYskBVyjpoJ8fAwMDgNsOUIE4a/cysTOQXFCDVnarjlH26dNbYXbWjwSnEwpR+DISZCq5aggTksNtHCFYSglLyTNExSC4P1sl1O73vz2vl52luITinEJw022AFaSnODE+Gpt5jofuVU25ItvyORMgOi/UbvjLIigkj7AxcErLUVVuE3HksXjNDnAYGBrcjpgRxEjTcdAkyrR0tvwbDiKEeb9hS7HDYHKrWpoKrVpGcpFmLUlLoph66s6CqU8hLFacQaXtbO7y97xMnSTc11QWnkKC0np6bkl9fn7pZZ82aha1bt+CJJ59Q1/iTTz6p2YcefPBBXY+Tc1hJoiRIEqelVlkfumj5PhaTfQlpuuUYJNurx0MNDAwMbgdMGctHI0yXIHPBTjRIJgF/QMlhKoCkSBUnlIX+SHgYF3WS5q/lXFXOAW1qbkJPb8/Ad3FwOgsVezgURmtLK7o6OtAtpaO1NV7a29A94OKlIrXcuQSPz8K2oRLnGKaSp/ztHRgPtg0kX3ALwRoYGBjcrphSxEn3HxUVFY+ub6nzL8cXdHf2J9vgDwaUDEgOPN6NRLKQIl3IdINqUJQG3VxVJypOBglJoUu1obFBF4Fm/f2McpXzicn7FGlHRt5yDJSrsoSkBPVcA7JNfKUWJp3g2GVUtmPh76wSCPjVjW1F7XIRabqFSaYk1mkVFTptxcDAwOB2xZQhTqqueBIA0V1CHJqwneQ5zkjiOKKQMxUVyeFGRIdePTaYlJwEV2qqVMuurlGe/5ARxUqeSUqWzABE4mT9GejU292txMg+ADsEvcztSzIUIo6yCAFGpPCzoJBjwO97r/hEUfb2dA+89mgCerYNp5yQhJljmAkXOOVl3rx5Gv1sYGBgcLtiyg1S0chzysWEqUBRdX2i8DraOt6b0nEjiFMXsR74m4tbq+KU90nqqh3i3PkbeyqS7fHpJFSDrH9He7uSIld6sck+kqVjEAyH0NrWhrr6BlyprcPlmhqcq67GufNVOHvuHE6dOYsTp09/oJypPIfG5hZ18+r0GClUmRcuXsKhAwfU1VuUn6/zPg1xGhgY3M6YUopT5xgKocQjOsOiOOlG5PqY40eiSSRO2R1VFcf7SA6TTZyEnC7/HXifBDuJU9Q2YkO4aRVCnCkpSvxKvPIJVWCDKM82Ic8LFy/i5KlTcfXZ1Y3aKzXYtXMntr3yCl59ZRvefP0NvPnGG9i5fQd2796NI0eO4uzZSlwUYmwWwvRJO3A8k+qX+2aigyoh2/1CmufOn1c3+uLFSzC9okKDuAwMDAxuV0wp4mSkJsfRNL8ss/74ezURAAl03JIhJCWL4iRx9qBrwCV5I4hzMOLzOOPzMxkROyRvDoISrSjPLiF+LhBeee483n7nHbz26qtoFiL19vTo6+vyN5cre/5Xz+GFXz+Pl174LV7btg0HhAwrKyt1PVCOhdL1y04LCzspPULIl65cUdJkHtvG5mYUlpTocmYlpaWa5cjAwMDgdsWUIU4GB9Fw63QIUV2xUADB1lr0XjwFb9NlIdEPRpBeK0g6dNV6fb73xvJ02sUNRDLHOEXRyRuEhMRGovF44BCQkZ6mSQ24yPTf//3fayKDo8eOIVU+n7NgPlavXYtNW7di9bq1mDF7NvzSEYlK5yMvvwArV67SvLVcl5Pp95iLli7rqqoq7H73Xfz2hZfw03/7iapUrqJCtzldtJs2bdIpKwYGBga3MyZ1WbGRQNVD9cPVNyqFEFwcy+uLIRYOIBoMoE+IVCNtkyga49Gl1wYhTlGw3o4mFBfm6/qbLIMz40wGmFiAS4DxlS7SgBDXiZMndazRk18GmzO+Fmk/aZQKPCaEGvRrh6I/HBSOjS//xYAiLvHF1IXMP7t+wwZdcmzpsqVYtHixfl4kxNgtKjQUDOlybmw/uqhbW1t1abELFy7g/PnzSsRnpFCN1snnFL4lJaVKmA888IDuV93p0vkwMDAwuF2RFAgERnEMTg6oeKhuqKB+9tOfwpPqVlJQhSjEosEvqWlw5hQiJT0TyU53nDzViI/NkMdCPnRePot5M6bh7ju24qmnnpr0gBd2FDraWuNp7eR9W0cn/uWHP8Szz/8WFcs3wJWRJWcl5x6L6rQczu+MeruldMVLNIqyimlYvnIl7rvvPl1gerg1MltaWvDsM8/i1ddexZGjR1RBWuVqsL3ZiaAKnTtnLlauWIkHH35Q1+DkPFsDAwOD2x1ThjjpLqXb9LXXXsNvX3gBZ0+dRocoUEbZMv8qSVTX0rQ7kSKG3eZKR3KaEKjLjWT72NQiVWyw8QJyPWlYtWIZ/vRP/1SJYTJB4mMgD6eQkDx7RQGy0/CTn/8CZXMWa5Rtvyjj98Z3pfPQJ+QZ45qjosC7e3uwcfNmPP7447j77rt13c3hVDOnldTX1aO2rhZNTU2qNpkEwUqEoB0TUaFUkwz8Ye5gFq6Ykp+Xj/yCfN03x2ANDAwMbndMGeKk+iF5XmR06IkTOHrkiCjQGs2Q09bS+t7CzSQUu5PEmYokUZ221HQtcLjiUzWSR1+cui8SQqS1DikRP+bMmo7/9t/+G2bMnDnw7eSAxKn5ckleQmzMBvS97/0T/uVH/4qC4jJNZBAJkVSDmivWyaApITiupuJwOuHJytTl2B555BGdW8k5lsPBalsSKJU9C+d/srAe/J5Kk/NoqSo5jskoWqsY16yBgYHB+5gyxDkYNPCc4F9dXY2TJ0/inXfe0cCVttZWzZNqS7GpMVciEQK1p3lg8+QixS0qVMiUkbN04b5v8D9o+PtjYUQ6WuFrrUdZfhb+8XvfU/KZTIKwiJOFROZ2OvCd734P/yyqMztTlHRyCiJ9MXXjuhxOXdWFC0lzzU1m79l65x3YsnWrumgZkWvIzcDAwGByMGWCgwaDbkO6BvPz8zU5+bp16zSqk+NunArBQJcWIVFNeJ5MAo0hxsAZfw+i3h70i6IUelTy1F7BB0iUkE/lN72d7Ujuj+Lee+/VFUNIQJMFukc1M48UkqjdliJK+ySqq6oxc9ZsLFm2VJOv33nnnXLeRboGZkNTI0rLypUwH3zoQcwUlcz2YHsZGBgYGEwOpiRxkuRIYiQFjrUxcIfjbQUFBVrS0tPVlRmNRdXdSHcnuAwZo275Kp9zHiijT9+Lxu2Tz4VQ9btYTL/3dbfDntSvUaPc70juzvHGUMR5+tQpXL58GStWrcLKlSuxYvkyDdDhtkxScPnKFUybNg3r1q/DmjVrdGkwozQNDAwMJhc3hVQhOZSUlKgC43JYn/3sZ/GJT34Sc+bNQ1qGB31xXamuWwbPRHo7EWxvRKD5CoJNlxFqrUO4o0VLtLsDMV+3qNNeJAmBEm1tbTqGeqORYrOpK3be/HlYumQxFi1YgGllpSgQ5c21Mxmcw3FIMyXEwMDA4MbhpvLxkSzowp0xY4auIylqWQN7/vTP/gwbNm/SgJnOnm4tTHDAoJsoidTbjVBns5aAkKi/SQi1o0mnpVDNkTgZ0TuZ4LmQCAdHqupal6KyryZFBuzQlUzS5Jgnx0RZbwMDAwODycdNR5wkGqovKlAGxmzevFlJ9LHHH8cTokY/9OijWLd+PWbPnYNcUWppbreOg/aRQAN+RAM+xFhCASTrNI9+tDQ3o6e7Z8h5jRMJjk0OJkkqTpsjHj07mBjT0oU48+LESdKcCmkCDQwMDG5XTMkxzrGA46Acn2SGnGXLlmn2HI6JZmRmijp1qluT0zmUlKRQsaYKmfIzzo/kyiQZnkydjsJAJBLZ1YpvosCxTY5xRiJh2KVDcL6qSlcyKS8vR1FBIXKys+PbxWKaV3ffvn16Dhzn5Hly2shk1dXAwMDAII6bnjgJi+wYUES3JtUoo3BXMshGyvKVK4RoVmD16tVYv3EjVskrk5V3icokUaUkJSvxzl+wQIlpMsiI6paFmYEYrET1ydVIamvrNJlBUVEh8nJz4xtLfbhaya5du1RpsmPATgKTFZikBAYGBgaTi1tmHgOJxyJOKlCOgy5cuFDzqzKoaMvWLbjz7rtwh85/3IJNWzZj+vTpOpWltr5OM+owk85kJXy3yJ71ZoQwqZr1p0JmoodoJBrfUMB5q4z4JWFyu2apq7WWqIGBgYHB5OKWngBIUiKRcioL3ZskU5Ily6JFi+S1Ammpbl3PsrG5SZPMT+ZKKUqeg5IzUO2SONV9G32fOCmA6XZmvZ0Opy4ZxoAmQ5wGBgYGk49bmjiHAwmVY6NcNaRi5kw4hZTahTyZZJ6kNVmgm5ULR1uwomw59tk3iMBJqOlUnKKkk+V7JoRnFiUqZAMDAwODycVtSZxUeszBSuKcMXOGukg7OjpQU1Oj0z0mA5abdvDyaCRNkiRdtYPrwQAmKtHsnBwleZ/fh8amJk3XZ2BgYGAwubhtFSejaxmEw7U4SaJ005I46f6crGkpJM/BaXQ5lkniZB3CkfDAp3FYbmfWlaTa0NCg45wGBgYGBpOL25I4LWRmZmoELtUc1RsTy5NAb9TYIetBQuc460hjrfyO9WW6QQMDAwODycVtTZzMxsOgIRKWt7cXLU3N6Ghvn1TiTE5K1kW6GQGUYou7auNLfgURCIXQ0dWN+oZGXLp8GXW1te+5ZzWwiIrVwMDAwGBScVsTJxPIM9kAEwnQ/dnW0qKrrkxm0A2DfbhIN0kwJTkeHMS8uaxHbV09zp8/j8NHj2Lf/gM4dfq0BjHpeGd29qQmpTcwMDAwiOO2Jk6SFUlz1apVKCgsRFtnhy6kTXKaLHDsklmNOC3F7ogTKFdIeeH55/G3/9//wD9957v42U9+gpdeegmnTp1C0B9AaVER1qxerWrZwMDAwGBycVsTJ0HVxiw8HOvs9Xpx9uxZTYYwWSBRkjwZJMQ5mpwmQ1dxQ30DqkRtXr50CY0NjaqCOR91/Yb1ePSxxzRPL13NBgYGBgaTi9ueOBmMs3jxYnXZMuiGxFlfXz+pSdStkUoqTkbOcnoMyZTjnSTH8vJpWDB/ATZv3oKPfuxj+INPfQpz5s5VtWxgYGBgMLm47YmTJKXTUqZNQ76QVG1tLerq6nSccTKzCFngnE23kDkTu6c4HfjsFz6Pv/rrv8K3/tu38LWvfhV33XWXpt4jqRoYGBgYTD5ue+K0VB1dtfn5BYiEwzotZSKzCFHNMhiJ0bOhUBDhcEjnjtJVSxXpSeei1aI4hdSXLluG1WvWYMmSJZg1e5bUMV9Vsrp3DQwMDAwmHbe99WUUK1cZKRTVWVxaomTF5AInTpzQICGOLXLMkWnwrjcxgq6GMkCa3KfP64VfSljeM8Uej01XbXp6mkbOktRzcnJ0/VG+N9NPDAwMDG48jGwZAN218+bNUzXHqNYdO3bg9ddfx+7du3H69OnrTqpOty8VLF3AvT3d8PX2vEeYfUKoQVG6nV1dOg3FWhmFJMtjDk6/Z2BgYGBwY5EUCAQmJ7/cFAcDgvbu2YP/+T/+Jzo7O5CXn4+y8nJVe3SfUvlRmfJvLltmvWdULgtT4VG9DgaJj4RpLVjNQiL0+32iNKX4/fB6e+Ht9aJdSLNbSmtzCy5cqNY5nLn5efj+97+vEbQkdAMDAwODGw9DnAMgqZ07dw7/z3/5S5w9c0YTqQdF+YXCIVV8dJLSfco0fVzwmlG4RYWFSrBMpEAStaJh6VJloXKMRMIICFlyPNNSj1SdzDPb1tqGluZmXV+Ty5rRleuyO+CQ/USFdKfNmI6///u/13VFScwGBgYGBjcehjgHQGXIsc2f/+zneGvnTpw5fUqJM9YXj6x12Gywp8TXyySJ6Rik3SYE1w/+R5AsdTFqKU4pRL98T+UZEgINCWnyOPy7X0qy/CwajSAcCiMs34XkPZGR7sHKVatwz3334rHHHtOAIBMMZGBgYDA1YIhzAFR7Xq9XxzOPHT2Kc2cr0e3t1dywPd3dCPj9UgK6TXdvD/q4Zqb8JizkGo3JeyFCgu5au5AsVzoZtNSmKkhOMbECjEiuWaJe09xpcKWmItXlhDs9HZmiXqeVlWHFypVYvmKFLl5t3LQGBgYGUweGOIcA1+Zsbm7WqFqqUM7r5BQVFmYV4nd07VpRsny1ymBYLlsLfG+5cqlaOR+TY6d09TL3LN2/M2bM0CAlaxzVwMDAwGBqwRDnEGAwj7WYNIsV1MPC9/yOrxy3ZLG25etg8uQUErpuWUiW/JtkaE01sV5ZSKRUlgw04iu/uzrYyMDAwMDgxsMQZ4IYrC4Ji1wt0rSiZwfDSptHArTUJnPRWkFEg2EpURYDAwMDg6kLQ5wGBgYGBgZjgAnVNDAwMDAwGAMMcRoYGBgYGIwBhjgNDAwMDAzGAEOcBgYGBgYGY4AhTgMDAwMDgzHAEKeBgYGBgcEYYIjTwMDAwMBgDDDEaWBgYGBgMAYY4jQwMDAwMBgDDHEaGBgYGBiMAYY4DQwMDAwMxgBDnAYGBgYGBmOAIU4DAwMDA4MxwBCngYGBgYFBwgD+/wBtQUCZl90eAAAAAElFTkSuQmCC;" vertex="1" parent="1">
          <mxGeometry x="240" y="80" width="171.1" height="80" as="geometry" />
        </mxCell>
        <mxCell id="yWaTH6eBsS6ZjSi_a27b-2" value="Amazon EC2" style="sketch=0;outlineConnect=0;fontColor=#232F3E;gradientColor=none;strokeColor=#ffffff;fillColor=#232F3E;dashed=0;verticalLabelPosition=middle;verticalAlign=bottom;align=center;html=1;whiteSpace=wrap;fontSize=10;fontStyle=1;spacing=3;shape=mxgraph.aws4.productIcon;prIcon=mxgraph.aws4.ec2;" vertex="1" parent="1">
          <mxGeometry x="60" y="80" width="80" height="100" as="geometry" />
        </mxCell>
        <mxCell id="yWaTH6eBsS6ZjSi_a27b-22" style="edgeStyle=orthogonalEdgeStyle;rounded=0;orthogonalLoop=1;jettySize=auto;html=1;exitX=0.5;exitY=1;exitDx=0;exitDy=0;entryX=0.429;entryY=0;entryDx=0;entryDy=0;entryPerimeter=0;" edge="1" parent="1" source="yWaTH6eBsS6ZjSi_a27b-3" target="yWaTH6eBsS6ZjSi_a27b-4">
          <mxGeometry relative="1" as="geometry" />
        </mxCell>
        <mxCell id="yWaTH6eBsS6ZjSi_a27b-3" value="&lt;b&gt;Clone Github Repository&lt;/b&gt;" style="rounded=1;whiteSpace=wrap;html=1;strokeWidth=3;" vertex="1" parent="1">
          <mxGeometry x="700" y="80" width="140" height="80" as="geometry" />
        </mxCell>
        <mxCell id="yWaTH6eBsS6ZjSi_a27b-23" style="edgeStyle=orthogonalEdgeStyle;rounded=0;orthogonalLoop=1;jettySize=auto;html=1;exitX=0;exitY=0.5;exitDx=0;exitDy=0;entryX=1;entryY=0.5;entryDx=0;entryDy=0;" edge="1" parent="1" source="yWaTH6eBsS6ZjSi_a27b-4" target="yWaTH6eBsS6ZjSi_a27b-5">
          <mxGeometry relative="1" as="geometry" />
        </mxCell>
        <mxCell id="yWaTH6eBsS6ZjSi_a27b-4" value="&lt;b&gt;Testing application&lt;/b&gt;" style="rounded=1;whiteSpace=wrap;html=1;strokeWidth=3;" vertex="1" parent="1">
          <mxGeometry x="710" y="240" width="140" height="80" as="geometry" />
        </mxCell>
        <mxCell id="yWaTH6eBsS6ZjSi_a27b-5" value="&lt;b&gt;Deployment&lt;/b&gt;" style="rounded=1;whiteSpace=wrap;html=1;strokeWidth=3;" vertex="1" parent="1">
          <mxGeometry x="490" y="240" width="140" height="80" as="geometry" />
        </mxCell>
        <mxCell id="yWaTH6eBsS6ZjSi_a27b-8" value="" style="dashed=0;outlineConnect=0;html=1;align=center;labelPosition=center;verticalLabelPosition=bottom;verticalAlign=top;shape=mxgraph.weblogos.github" vertex="1" parent="1">
          <mxGeometry x="726.25" y="-80" width="87.5" height="80" as="geometry" />
        </mxCell>
        <mxCell id="yWaTH6eBsS6ZjSi_a27b-9" value="" style="endArrow=classic;html=1;rounded=0;entryX=0;entryY=0.5;entryDx=0;entryDy=0;" edge="1" parent="1" target="yWaTH6eBsS6ZjSi_a27b-1">
          <mxGeometry width="50" height="50" relative="1" as="geometry">
            <mxPoint x="140" y="119" as="sourcePoint" />
            <mxPoint x="230" y="89" as="targetPoint" />
            <Array as="points" />
          </mxGeometry>
        </mxCell>
        <mxCell id="yWaTH6eBsS6ZjSi_a27b-11" value="" style="endArrow=classic;html=1;rounded=0;entryX=0;entryY=0.5;entryDx=0;entryDy=0;exitX=1;exitY=0.5;exitDx=0;exitDy=0;" edge="1" parent="1" source="yWaTH6eBsS6ZjSi_a27b-1">
          <mxGeometry width="50" height="50" relative="1" as="geometry">
            <mxPoint x="390" y="119.5" as="sourcePoint" />
            <mxPoint x="490" y="120.5" as="targetPoint" />
            <Array as="points" />
          </mxGeometry>
        </mxCell>
        <mxCell id="yWaTH6eBsS6ZjSi_a27b-29" style="edgeStyle=orthogonalEdgeStyle;rounded=0;orthogonalLoop=1;jettySize=auto;html=1;exitX=0.5;exitY=1;exitDx=0;exitDy=0;entryX=0.375;entryY=0.047;entryDx=0;entryDy=0;entryPerimeter=0;" edge="1" parent="1" source="yWaTH6eBsS6ZjSi_a27b-16" target="yWaTH6eBsS6ZjSi_a27b-2">
          <mxGeometry relative="1" as="geometry" />
        </mxCell>
        <mxCell id="yWaTH6eBsS6ZjSi_a27b-16" value="" style="whiteSpace=wrap;html=1;aspect=fixed;strokeColor=#000000;strokeWidth=3;fillColor=#FFFFFF;" vertex="1" parent="1">
          <mxGeometry x="5" y="-170" width="170" height="170" as="geometry" />
        </mxCell>
        <mxCell id="yWaTH6eBsS6ZjSi_a27b-20" style="edgeStyle=orthogonalEdgeStyle;rounded=0;orthogonalLoop=1;jettySize=auto;html=1;exitX=1;exitY=0.5;exitDx=0;exitDy=0;entryX=0;entryY=0.5;entryDx=0;entryDy=0;" edge="1" parent="1" source="yWaTH6eBsS6ZjSi_a27b-17" target="yWaTH6eBsS6ZjSi_a27b-3">
          <mxGeometry relative="1" as="geometry" />
        </mxCell>
        <mxCell id="yWaTH6eBsS6ZjSi_a27b-17" value="&lt;b&gt;Choose environment&lt;/b&gt;" style="rounded=1;whiteSpace=wrap;html=1;strokeWidth=3;" vertex="1" parent="1">
          <mxGeometry x="490" y="80" width="140" height="80" as="geometry" />
        </mxCell>
        <mxCell id="yWaTH6eBsS6ZjSi_a27b-26" value="" style="endArrow=classic;html=1;rounded=0;entryX=0.5;entryY=0;entryDx=0;entryDy=0;" edge="1" parent="1" target="yWaTH6eBsS6ZjSi_a27b-3">
          <mxGeometry width="50" height="50" relative="1" as="geometry">
            <mxPoint x="770" as="sourcePoint" />
            <mxPoint x="840" y="0.5" as="targetPoint" />
            <Array as="points" />
          </mxGeometry>
        </mxCell>
        <mxCell id="yWaTH6eBsS6ZjSi_a27b-27" value="&lt;b&gt;Security Group&lt;/b&gt;" style="sketch=0;aspect=fixed;html=1;points=[];align=center;image;fontSize=12;image=img/lib/mscae/Network_Security_Groups_Classic.svg;strokeColor=#000000;strokeWidth=3;fillColor=#FFFFFF;" vertex="1" parent="1">
          <mxGeometry x="50" y="-150" width="37" height="50" as="geometry" />
        </mxCell>
        <mxCell id="yWaTH6eBsS6ZjSi_a27b-28" value="&lt;b&gt;IAM&lt;/b&gt;" style="outlineConnect=0;dashed=0;verticalLabelPosition=bottom;verticalAlign=top;align=center;html=1;shape=mxgraph.aws3.iam;fillColor=#759C3E;gradientColor=none;strokeColor=#000000;strokeWidth=3;" vertex="1" parent="1">
          <mxGeometry x="110" y="-100" width="42" height="70" as="geometry" />
        </mxCell>
        <mxCell id="yWaTH6eBsS6ZjSi_a27b-30" value="&lt;b&gt;&lt;font style=&quot;font-size: 26px;&quot;&gt;Architectural diagram - Deployment on AWS&lt;/font&gt;&lt;/b&gt;" style="text;html=1;align=center;verticalAlign=middle;resizable=0;points=[];autosize=1;strokeColor=none;fillColor=none;" vertex="1" parent="1">
          <mxGeometry x="155" y="-235" width="570" height="40" as="geometry" />
        </mxCell>
        <mxCell id="yWaTH6eBsS6ZjSi_a27b-32" value="&amp;nbsp; &amp;nbsp; &amp;nbsp; &amp;nbsp; &amp;nbsp; &amp;nbsp; &amp;nbsp; &amp;nbsp; &amp;nbsp; &amp;nbsp; &amp;nbsp; &amp;nbsp; &amp;nbsp; &amp;nbsp; &amp;nbsp; &amp;nbsp; &amp;nbsp; &amp;nbsp; &amp;nbsp; &amp;nbsp; &amp;nbsp; &amp;nbsp; &amp;nbsp; &amp;nbsp; &amp;nbsp; &amp;nbsp; &amp;nbsp; &amp;nbsp; &amp;nbsp; &amp;nbsp; &amp;nbsp; &amp;nbsp; &amp;nbsp; &amp;nbsp; &amp;nbsp; &amp;nbsp; &amp;nbsp; &amp;nbsp; &amp;nbsp; &amp;nbsp; &amp;nbsp; &amp;nbsp; &amp;nbsp; &amp;nbsp; &lt;font style=&quot;font-size: 15px;&quot;&gt;Question 2: &lt;br&gt;&lt;span style=&quot;white-space: pre;&quot;&gt;	&lt;/span&gt;&lt;span style=&quot;white-space: pre;&quot;&gt;	&lt;/span&gt;&lt;span style=&quot;white-space: pre;&quot;&gt;	&lt;/span&gt;&lt;span style=&quot;white-space: pre;&quot;&gt;	&lt;/span&gt;&lt;span style=&quot;white-space: pre;&quot;&gt;	&lt;/span&gt;&lt;span style=&quot;white-space: pre;&quot;&gt;	&lt;/span&gt;&lt;span style=&quot;white-space: pre;&quot;&gt;	&lt;/span&gt;&lt;span style=&quot;white-space: pre;&quot;&gt;	&lt;/span&gt;&lt;span style=&quot;white-space: pre;&quot;&gt;	&lt;/span&gt;&lt;span style=&quot;white-space: pre;&quot;&gt;	&lt;/span&gt;&lt;span style=&quot;white-space: pre;&quot;&gt;	&lt;/span&gt;&lt;span style=&quot;white-space: pre;&quot;&gt;	&lt;/span&gt;&lt;span style=&quot;white-space: pre;&quot;&gt;	&lt;/span&gt;&lt;span style=&quot;white-space: pre;&quot;&gt;	&lt;/span&gt;&lt;span style=&quot;white-space: pre;&quot;&gt;	&lt;/span&gt;&amp;nbsp; I will use Code pipeline and Code build&lt;br&gt;&amp;nbsp; &amp;nbsp; &amp;nbsp; &amp;nbsp; &amp;nbsp; &amp;nbsp; &amp;nbsp; &amp;nbsp; &amp;nbsp; &amp;nbsp; &amp;nbsp; &amp;nbsp; &amp;nbsp; &amp;nbsp; &amp;nbsp; &amp;nbsp; &amp;nbsp; &amp;nbsp; &amp;nbsp; &amp;nbsp; &amp;nbsp; &amp;nbsp; &amp;nbsp; &amp;nbsp; &amp;nbsp; &amp;nbsp; &amp;nbsp; &amp;nbsp; &amp;nbsp; &amp;nbsp; &amp;nbsp; &amp;nbsp; &amp;nbsp; &amp;nbsp; &amp;nbsp; &amp;nbsp; &amp;nbsp; &amp;nbsp; &amp;nbsp; &amp;nbsp; &amp;nbsp; &amp;nbsp; &amp;nbsp; &amp;nbsp; &amp;nbsp; &amp;nbsp; &amp;nbsp; &amp;nbsp; &amp;nbsp; &amp;nbsp; &amp;nbsp; &amp;nbsp; &amp;nbsp; &amp;nbsp; &amp;nbsp; &amp;nbsp; &amp;nbsp; &amp;nbsp; &amp;nbsp; &amp;nbsp; &amp;nbsp; &amp;nbsp; &amp;nbsp; &amp;nbsp;In Code build, I will choose my repository.&lt;br&gt;&lt;span style=&quot;white-space: pre;&quot;&gt;	&lt;/span&gt;&lt;span style=&quot;white-space: pre;&quot;&gt;	&lt;/span&gt;&lt;span style=&quot;white-space: pre;&quot;&gt;	&lt;/span&gt;&lt;span style=&quot;white-space: pre;&quot;&gt;	&lt;/span&gt;&lt;span style=&quot;white-space: pre;&quot;&gt;	&lt;/span&gt;&lt;span style=&quot;white-space: pre;&quot;&gt;	&lt;/span&gt;&lt;span style=&quot;white-space: pre;&quot;&gt;	&lt;/span&gt;&lt;span style=&quot;white-space: pre;&quot;&gt;	&lt;/span&gt;&lt;span style=&quot;white-space: pre;&quot;&gt;	&lt;/span&gt;&lt;span style=&quot;white-space: pre;&quot;&gt;	&lt;/span&gt;&lt;span style=&quot;white-space: pre;&quot;&gt;	&lt;/span&gt;&lt;span style=&quot;white-space: pre;&quot;&gt;	&lt;/span&gt;&amp;nbsp; &amp;nbsp; &amp;nbsp;&lt;span style=&quot;white-space: pre;&quot;&gt;	&lt;/span&gt;&lt;span style=&quot;white-space: pre;&quot;&gt;	&lt;/span&gt;&lt;span style=&quot;white-space: pre;&quot;&gt;	&lt;/span&gt;&lt;span style=&quot;white-space: pre;&quot;&gt;	&lt;/span&gt;&lt;span style=&quot;white-space: pre;&quot;&gt;	&lt;/span&gt;&lt;span style=&quot;white-space: pre;&quot;&gt;	&lt;/span&gt;&lt;span style=&quot;white-space: pre;&quot;&gt;	&lt;/span&gt;&lt;span style=&quot;white-space: pre;&quot;&gt;	&lt;/span&gt;&lt;span style=&quot;white-space: pre;&quot;&gt;	&lt;/span&gt;&lt;span style=&quot;white-space: pre;&quot;&gt;	&lt;/span&gt;&lt;span style=&quot;white-space: pre;&quot;&gt;	&lt;/span&gt;&lt;span style=&quot;white-space: pre;&quot;&gt;	&lt;/span&gt;&lt;span style=&quot;white-space: pre;&quot;&gt;	&lt;/span&gt;&lt;span style=&quot;white-space: pre;&quot;&gt;	&lt;/span&gt;&lt;span style=&quot;white-space: pre;&quot;&gt;	&lt;/span&gt;&lt;span style=&quot;white-space: pre;&quot;&gt;	&lt;/span&gt;&lt;span style=&quot;white-space: pre;&quot;&gt;	&lt;/span&gt;&lt;span style=&quot;white-space: pre;&quot;&gt;	&lt;/span&gt;&lt;span style=&quot;white-space: pre;&quot;&gt;	&lt;/span&gt;Then in Build spec, I will write the instruction of what the code pipeline will do.&amp;nbsp;&lt;/font&gt; &amp;nbsp; &amp;nbsp; &amp;nbsp; &amp;nbsp; &amp;nbsp; &amp;nbsp; &amp;nbsp; &amp;nbsp; &amp;nbsp; &amp;nbsp; &amp;nbsp; &amp;nbsp; &amp;nbsp; &amp;nbsp; &amp;nbsp; &amp;nbsp; &amp;nbsp; &amp;nbsp;&amp;nbsp;" style="text;html=1;align=center;verticalAlign=middle;resizable=0;points=[];autosize=1;strokeColor=none;fillColor=none;fontSize=26;" vertex="1" parent="1">
          <mxGeometry x="-830" y="350" width="1840" height="140" as="geometry" />
        </mxCell>
      </root>
    </mxGraphModel>
  </diagram>
</mxfile>
